<?xml version="1.0" encoding="utf-8"?>
<!-- Generator: Adobe Illustrator 16.0.4, SVG Export Plug-In . SVG Version: 6.00 Build 0)  -->
<!DOCTYPE svg PUBLIC "-//W3C//DTD SVG 1.1//EN" "http://www.w3.org/Graphics/SVG/1.1/DTD/svg11.dtd">
<svg version="1.1" id="Layer_1" xmlns="http://www.w3.org/2000/svg" xmlns:xlink="http://www.w3.org/1999/xlink" x="0px" y="0px"
	 width="214.512px" height="769.526px" viewBox="0 0 214.512 769.526" enable-background="new 0 0 214.512 769.526"
	 xml:space="preserve">
<g>
	<path fill="#010101" d="M204.915,335.489c0.192-0.625,2.091-2.857,3.485-4.498c3.581-4.206,6.111-7.327,6.111-9.21
		c0-1.944-2.855-3.904-7.562-6.904c-2.483-1.59-5.572-3.563-5.969-4.572c-0.453-1.144,0.035-2.896,0.654-6.148
		c0.818-4.282,2.11-9.421-0.129-12.022c-1.767-2.076-6.652-1.565-13.346-0.615c-2.388,0.334-5.654,0.797-6.27,0.486
		c-0.605-0.335-2.062-3.333-3.117-5.521c-2.83-5.852-5.029-10.045-7.617-10.737c-2.664-0.701-6.612,2.292-11.9,6.604
		c-1.998,1.637-4.481,3.654-5.332,3.834c-0.515-0.058-2.539-0.884-4.328-1.614c-6.85-2.786-12.269-4.813-14.496-3.498
		c-1.807,1.056-2.37,5.411-3.043,11.921c-0.273,2.671-0.641,6.324-1.106,6.899c-0.534,0.634-2.915,0.867-5.025,1.074
		c-0.052,0.005-0.109,0.012-0.175,0.02c-0.527-2.006-1.916-3.596-3.894-4.412c-1.977-0.818-4.288-0.726-6.116,0.201
		c-0.95-4.853-0.435-11.159-0.301-11.892c2.855-0.17,5.262-1.421,6.661-3.483c1.177-1.724,1.704-3.916,1.021-6.456
		c15.069-0.172,29.04-2.554,36.159-7.139c3.321-2.135,5.043-4.655,5.124-7.501c0.129-4.146-2.536-6.27-5.364-8.522
		c-1.846-1.471-3.933-3.137-5.617-5.604c-1.867-2.738-3.121-6.53-3.51-10.669c2.492-3.343,3.881-7.067,4.056-10.983
		c0.101-2.152-0.175-4.182-0.675-6.044c6.252-2.497,5.323-7.641,4.846-7.671c-0.477-0.023-0.74,4.72-5.362,6.021
		c-0.377-1.028-0.812-1.993-1.289-2.874c3.925-4.452,4.503-8.721,4.397-11.969c-0.119-3.836-1.57-7.389-3.992-9.848
		c1.846-4.252,2.803-9.332,2.422-13.773c-0.383-4.568-2.063-8.36-4.748-10.79c2.685-4.298,4.021-9.254,4.021-13.828
		c0-4.636-1.369-8.881-4.111-11.655c2.029-4.305,2.858-9.072,1.928-13.355c-0.829-3.803-2.9-6.904-5.881-8.821
		c1.918-4.424,2.798-8.994,1.287-14.212c-1.088-3.782-3.426-7.01-6.473-8.98c0.884-2.638,1.266-6.849-0.129-11.241
		c-1.139-3.581-3.228-6.684-5.62-8.418c0.105-2.168,0.105-7.894-2.153-12.496c-1.929-3.938-5.068-6.709-9.342-8.246
		c0.293-1.694,1.502-8.849-2.347-15.015c-2.411-3.87-6.37-6.759-11.464-8.387c-2.095-10.955-5.387-17.318-16.077-19.248
		c-1.397-5.166-3.973-8.754-7.659-10.666c-5.61-2.904-12.243-1.203-15.915,0.186c-6.828-2.998-12.656-3.873-17.791-2.679
		c-3.941,0.921-7.448,3.099-10.683,6.646c-5.778-1.542-10.598-1.177-14.352,1.094c-3.338,2.025-5.643,5.501-6.699,10.065
		C13.056,20.38,8.453,23.993,6.434,29.079c-1.768,4.437-1.35,8.745-0.545,12.688C1.147,46.675,0,51.621,0,55.23
		c0,3.178,1.409,9.483,6.035,13.342C5.363,72.83,5.708,77.721,7.59,81.894c1.777,3.93,4.673,6.972,8.412,8.841
		c-0.929,4.979-0.832,9.293,0.654,13.052c1.402,3.555,3.967,6.367,7.812,8.581c-2.095,5.31-1.708,11.006-1.21,13.49
		c0.834,4.192,2.79,8.296,5.645,11.918c-0.919,3.481-1.381,6.788-1.381,9.88c0,5.874,1.645,10.977,4.903,15.083
		c-2.546,5.952-2.537,10.576-2.185,13.518c0.485,4.067,2.096,7.809,4.653,10.865c-1.815,6.255-1.8,11.275-0.869,14.506
		c1.038,3.605,3.166,6.38,5.656,9.297c-3.65,7.276-3.397,12.553-2.538,16.216c0.845,3.6,2.722,6.968,5.577,10.038
		c-2.492,6.688-2.541,10.675-1.265,14.546c1.299,3.96,4.116,6.805,7.019,9.28c0.597,6.874,2.889,11.978,6.813,15.163
		c4.462,3.604,9.789,3.712,12.265,3.524c0.59,4.028,0.917,8.521,0.401,12.357c-0.346-0.046-0.7-0.07-1.058-0.07
		c-4.006,0-7.26,3.216-7.26,7.179c0,2.249,1.053,4.25,2.69,5.57c-3.061,3.666-15.659,19.338-24.843,39.457
		c-4.909,10.76-8.033,21.05-9.29,30.582c-1.523,11.574-0.289,22.131,3.679,31.366c2.108,4.908,6.462,8.917,12.954,11.913
		c1.6,0.736,3.328,1.413,5.176,2.029c-3.385,4.345-6.584,9.569-9.299,15.174c-3.316,6.874-5.918,14.277-7.723,22.018
		c-2.039,8.717-3.029,17.743-2.944,26.824c0.084,10.156,1.531,20.446,4.281,30.586c1.943,7.188,3.822,13.61,5.646,19.818
		c3.421,11.669,6.653,22.689,9.342,35.706c2.979,14.415,5.035,29.936,6.462,48.832c2.056,27.264-0.73,35.348-2.065,39.229
		c-0.818,2.373-1.265,3.672,0.077,6.527c1.146,2.426,4.705,5.066,10.02,7.559c0.26,3.486,0.991,9.02,1.832,15.375
		c1.299,9.888,2.77,21.104,2.855,27.599c0.067,5.601-0.73,11.855-1.509,17.889c-1.332,10.436-2.385,18.676,1.213,21.121
		c2.76,1.882,4.44,2.003,6.875,2.003h0.077c1.5-0.131,5.276-0.79,6.613-1.028c2.182,2.669,4.388,5.28,6.236,6.341
		c2.115,1.203,10.06,4.062,18.187,5.964c4.689,1.099,8.779,1.738,12.152,1.881c4.201,0.188,7.258-0.396,9.097-1.724
		c5.094-3.692-2.12-12.705-9.903-19.872c-9.693-8.93-15.69-16.765-17.364-22.657c-2.127-7.54-1.74-20.761-1.422-31.39
		c0.155-5.104,0.291-9.593,0.088-12.382c5.711,0.703,11.536,1.099,17.294,1.17c4.999,0.072,9.801-0.071,14.367-0.42
		c0.943,8.046,2.449,20.661,2.449,35.821c0,6.465-0.555,12.305-1.002,16.993c-0.717,7.587-1.189,12.61,1.131,14.54
		c3.324,2.773,7.451,3.566,9.161,3.084c0.099-0.028,0.198-0.086,0.279-0.152c1.228-0.912,4.364-2.784,5.171-3.275
		c0.287,0.253,0.562,0.496,0.841,0.739c3.72,3.318,8.352,7.474,12.204,9.006c4.564,1.823,13.506,3.542,21.752,4.183
		c4.419,0.334,8.344,0.339,11.361,0.014c5.897-0.64,8.156-2.631,7.717-5.075c-0.602-3.4-6.594-7.091-12.396-10.682
		c-2.024-1.235-3.931-2.421-5.257-3.399c-4.025-2.958-19.379-16.033-20.537-22.146c-2.02-10.682-1.638-22.141-1.294-32.239
		c0.187-5.597,0.363-10.877,0.055-15.089c1.277-0.669,2.458-1.36,3.538-2.092c3.057-2.071,5.281-4.35,6.611-6.785
		c1.874-3.447,1.408-25.157,0.435-42.708c-1.449-25.994-4.369-53.317-8.022-74.97c-1.642-9.733-4.568-20.808-7.665-32.538
		c-6.086-23.043-12.364-46.851-9.479-62.765c1.354,0.396,2.841,0.678,4.429,0.831c5.453,0.535,11.582-0.484,17.254-2.865
		c6.4-2.686,11.863-6.947,15.785-12.319c3.259-4.457,5.47-9.134,6.563-13.892c0.974-4.267,1.017-8.567,0.114-12.429
		c-1.223-5.261-4.123-9.515-8.007-11.811c0.116-1.185,0.181-2.407,0.181-3.648c0.006-5.31-1.05-10.361-2.969-14.215
		c-0.77-1.542-1.684-2.898-2.713-4.07c1.358,0.408,2.498,0.499,3.242,0.021c1.241-0.783,1.408-2.832,1.59-5.195
		c0.129-1.604,0.293-3.581,0.873-4.345c0.646-0.225,3.319,0.147,5.104,0.396c4.657,0.635,7.556,0.932,8.596-0.335
		c1.553-1.881,0.631-5.758-0.262-9.473c-0.285-1.171-0.991-3.515-0.727-4.28c0.467-0.516,3.443-1.402,5.425-1.989
		c4.989-1.48,8.308-2.574,9.024-4.31c0.702-1.712-0.917-4.707-3.836-9.241C206.271,338.049,204.994,336.062,204.915,335.489"/>
	<path fill="#FFFFFF" d="M152.53,224.463c-0.229,5.045-2.646,9.762-7.009,13.701c-0.994-2.272-2.725-3.848-5.195-4.693
		c-2.829-0.975-5.977-0.757-8.096-0.501c-4.895,0.571-10.551,0.71-12.618-0.065c0.735-2.079,1.137-4.276,1.171-6.511
		c0.066-4.311-1.579-8.854-4.508-12.625c3.609-4.805,9.205-7.849,15.441-8.376c6.028-0.507,11.77,1.481,15.738,5.449
		C149.969,213.358,152.8,218.43,152.53,224.463"/>
	<path fill="#4773B9" d="M56.246,274.958c-3.615-2.927-5.706-7.736-6.216-14.3c-0.015-0.233-0.131-0.453-0.311-0.604
		c-2.795-2.367-5.545-5.06-6.756-8.723c-1.231-3.752-0.773-8.164,1.433-13.892c0.126-0.318,0.052-0.681-0.186-0.929
		c-2.852-2.939-4.702-6.171-5.513-9.618c-1.124-4.784-0.227-10.004,2.662-15.53c0.165-0.32,0.115-0.712-0.117-0.986
		c-2.523-2.925-4.686-5.63-5.679-9.085c-1.072-3.7-0.75-8.138,0.993-13.968c0.081-0.289,0.016-0.604-0.184-0.833
		c-2.505-2.856-4.073-6.408-4.539-10.286c-0.506-4.213,0.248-8.613,2.254-13.09c0.134-0.306,0.086-0.661-0.129-0.919
		c-4.946-5.935-6.122-14.31-3.409-24.231c0.081-0.272,0.019-0.568-0.158-0.783c-2.828-3.486-4.754-7.463-5.561-11.513
		c-0.905-4.51-0.438-8.947,1.395-13.19c0.177-0.415,0.006-0.903-0.388-1.125c-3.858-2.057-6.378-4.695-7.703-8.055
		c-1.345-3.4-1.481-7.563-0.438-12.727c0.083-0.403-0.125-0.81-0.492-0.978c-7.448-3.382-11.176-11.652-9.516-21.07
		c0.066-0.32-0.074-0.654-0.331-0.854c-2.423-1.862-5.379-5.939-5.728-11.28C1.315,51.538,3.276,46.846,7.3,42.819
		c0.21-0.211,0.303-0.515,0.24-0.805c-0.66-3.138-1.353-7.812,0.369-12.136c1.851-4.663,6.233-7.981,13.023-9.858
		c0.323-0.09,0.558-0.346,0.626-0.671c0.619-3.02,2.171-7.106,6.014-9.434C30.996,7.838,35.53,7.58,41.05,9.148
		c0.327,0.092,0.676-0.01,0.903-0.263c3.139-3.557,6.362-5.619,10.134-6.505c4.834-1.124,10.399-0.234,17.022,2.722
		c0.21,0.095,0.456,0.1,0.678,0.017c2.665-1.045,9.436-3.172,14.802-0.394c3.361,1.738,5.682,5.13,6.909,10.082
		c0.079,0.338,0.361,0.599,0.707,0.654c4.938,0.802,8.315,2.565,10.624,5.55c2.105,2.736,3.5,6.597,4.67,12.909
		c0.067,0.324,0.301,0.587,0.61,0.679c10.438,3.107,15.17,11.239,12.979,22.302c-0.086,0.435,0.172,0.87,0.598,1.006
		c4.168,1.33,7.209,3.88,9.023,7.595c1.593,3.258,2.259,7.336,1.958,12.108c-0.024,0.317,0.122,0.621,0.386,0.792
		c4.618,2.985,7.908,11.732,5.244,18.537c-0.16,0.405,0,0.863,0.382,1.086c2.96,1.683,5.254,4.725,6.293,8.327
		c1.222,4.229,0.699,8.967-1.499,13.702c-0.196,0.419-0.041,0.916,0.357,1.136c2.898,1.619,4.934,4.488,5.699,8.076
		c0.867,3.961,0.16,8.38-2.044,12.795c-0.181,0.348-0.103,0.78,0.188,1.04c2.545,2.29,4.002,6.217,4.002,10.792
		c0,4.644-1.509,9.577-4.135,13.527c-0.261,0.382-0.178,0.895,0.182,1.182c2.654,2.079,4.322,5.655,4.697,10.072
		c0.358,4.354-0.531,9.139-2.516,13.467c-0.168,0.347-0.079,0.753,0.205,1.013c4.561,4.17,5.663,12.822,0.272,19.371
		c-0.669-1.001-1.378-1.859-2.065-2.55c-0.174-0.17-0.349-0.351-0.535-0.516c4.271-5.063,1.492-9.218,1.067-9.051
		c-0.425,0.168,0.816,4.622-2.349,7.965c-0.512-0.396-1.043-0.764-1.58-1.113c1.584-5.056,0.658-12.269-3.181-14.515
		c-0.182-0.098-0.387-0.144-0.578-0.107c-3.218,0.475-9.21,1.736-15.382-1.905c-0.205-0.119-0.451-0.153-0.686-0.088
		c-2.355,0.668-10.201,4.092-18.946-1.746c-0.367-0.24-0.859-0.179-1.146,0.156c-1.576,1.79-6.475,5.796-17.963,4.201
		c-0.287-0.044-0.561,0.058-0.754,0.253c-4.465,4.614-9.326,7.991-18.567,9.509c-0.27,0.046-0.508,0.216-0.637,0.456
		c-0.129,0.246-0.139,0.535-0.015,0.785c1.308,2.76,1.882,10.211-2.158,18.445c-0.151,0.292-0.122,0.643,0.069,0.9
		c1.096,1.517,2.39,4.777,2.452,8.973c0.043,2.929-0.53,7.085-3.45,10.466c-1.602-1.11-3.882-1.803-6.754-0.922
		c-3.189,0.974-6.551,4.129-6.408,10.121c0.067,2.532,1.079,5.097,2.855,7.23c1.702,2.035,3.958,3.404,6.159,3.941
		c1.352,0.325,2.519,0.266,3.515-0.025c0.764,2.01,2.115,6.336,3.189,11.557c0.193,0.986,0.396,2.052,0.587,3.164
		C64.836,278.268,60.151,278.118,56.246,274.958"/>
	<path fill="#F4DE12" d="M65.094,262.477c2.428-1.604,3.245-4.646,2.668-4.915c-0.441-0.208-3.134,5.214-7.42,3.974
		c-1.797-0.524-3.722-1.604-5.161-3.341c-1.533-1.832-2.397-4.021-2.459-6.15c-0.119-5.008,2.586-7.626,5.167-8.401
		c5.09-1.521,8.237,3.777,8.939,3.265c0.3-0.228-0.186-1.576-1.368-2.866c5.792-6.708,4.199-16.759,1.387-21.183
		c3.23-6.826,4.038-13.219,2.359-18.455c8.838-1.633,13.742-4.989,18.187-9.514c4.882,0.631,9.148,0.355,12.696-0.826
		c2.865-0.96,4.718-2.326,5.864-3.457c8.371,5.242,15.103,2.889,19.423,1.671c6.031,3.405,11.689,2.608,15.867,1.986
		c2.839,1.968,3.41,7.841,2.256,11.941c-2.074-1.06-4.347-1.768-6.732-2.107c1.655-5.546-2.73-7.911-3.041-7.561
		c-0.312,0.363,2.791,3.787,1.272,7.377c-1.117-0.067-2.249-0.058-3.399,0.038c-2.631,0.225-5.157,0.869-7.48,1.884
		c-1.028-5.921-5.406-5.921-5.521-5.482c-0.125,0.462,3.688,1.87,3.908,6.253c-2.776,1.479-5.231,3.52-7.164,6.021
		c-0.371-0.4-0.736-0.797-1.133-1.182c-1.231-1.21-2.582-2.251-4.016-3.116c5.362-4.692,2.072-8.613,1.643-8.441
		c-0.451,0.173,0.855,5.081-3.279,7.557c-2.976-1.449-6.265-2.156-9.631-2.037c-0.247,0.012-0.473,0.021-0.711,0.041
		c0.926-5.47-2.576-7.81-2.917-7.513c-0.37,0.314,2.321,4.603,1.139,7.683c-4.209,0.542-7.842,2.05-10.819,4.18
		c-0.022-0.062-0.056-0.098-0.118-0.098c-4.263-0.068-5.271-5.896-5.756-5.92c-0.465-0.029-1.587,5.018,4.205,7.33
		c-2.855,2.472-4.971,5.562-6.255,8.868c-4.292,0.584-5.493-4.515-5.973-4.475c-0.465,0.041-1.194,5.742,5.394,6.167
		c-0.571,1.909-0.862,3.877-0.862,5.82c0,6.854,3.296,11.475,6.068,14.143c4.188,4.033,10.137,6.413,15.547,6.208
		c6.666-0.244,12.438-2.641,16.695-6.924c1.884-1.886,3.354-4.055,4.402-6.394c3.424,1.274,11.738,0.392,13.482,0.182
		c3.051-0.361,5.44-0.22,7.314,0.425c2.717,0.933,4.297,2.912,4.809,6.038c0.351,2.107-0.474,4.228-2.307,5.971
		c-1.672,1.588-4.054,2.735-6.891,3.316c-5.678,1.167-11.674-0.447-11.849,0.398c-0.146,0.654,5.487,2.682,12.183,1.327
		c3.126-0.632,5.802-1.908,7.77-3.77c2.261-2.158,3.264-4.829,2.826-7.53c-0.071-0.433-0.162-0.846-0.277-1.239
		c0.885-0.759,1.687-1.547,2.426-2.356c1.183,9.238,5.771,12.896,9.493,15.87c2.795,2.22,4.808,3.824,4.717,7.098
		c-0.065,2.222-1.527,4.269-4.325,6.075c-6.656,4.281-20.398,6.851-36.767,6.877c-16.334,0.022-32.242-2.521-42.644-6.81
		c0.919-1.704,3.419-2.654,3.318-3.046c-0.205-0.764-3.521,0.167-4.665,2.509c-1.356,2.776,0.201,6.604,1.034,6.248
		c0.489-0.201-0.315-2.081-0.151-4.006c11.178,4.56,27.463,6.846,42.841,6.851c0.622,1.954,0.398,3.924-0.65,5.461
		c-1.2,1.77-3.295,2.739-5.899,2.739c-0.37,0-0.702,0.233-0.828,0.584c-0.792,2.254-0.826,11.142,0.638,15.527
		c-0.061,0-0.127-0.007-0.184-0.007c-3.148,0-5.838,1.957-6.828,4.677c-1.318-1.889-3.479-3.132-5.919-3.132
		c-2.815,0-5.259,1.645-6.462,4.046c-1.242-2.582-3.925-4.373-7.023-4.373c-1.757,0-3.386,0.578-4.685,1.544
		c-0.571-3.693-3.717-6.531-7.494-6.531c-0.9,0-1.769,0.167-2.571,0.46c-0.797-1.575-2.137-2.788-3.734-3.43
		C71.11,282.393,66.927,267.19,65.094,262.477"/>
	<path fill="#010101" d="M139.69,220.583c-1.845,0-3.347,1.49-3.347,3.333c0,1.833,1.502,3.325,3.347,3.325
		c1.849,0,3.356-1.492,3.356-3.325C143.047,222.073,141.539,220.583,139.69,220.583"/>
	<path fill="#FFFFFF" d="M98.976,206.856c5.274-0.188,10.33,1.812,14.225,5.624c3.92,3.846,6.219,9.043,6.136,13.889
		c-0.082,5.038-2.139,9.849-5.802,13.528c-3.999,4.022-9.435,6.269-15.723,6.504c-5.028,0.188-10.584-2.035-14.49-5.812
		c-2.571-2.468-5.622-6.744-5.622-13.097C77.699,217.729,85.664,207.333,98.976,206.856"/>
	<path fill="#FFFFFF" d="M131.402,319.599c1.843-0.783,3.904-1.043,5.963-0.759c4.787,0.661,8.553,4.005,10.12,8.983
		c-1.628,2.278-2.494,5.001-2.494,7.694c0,0.377,0.011,0.762,0.032,1.141c-1.184,0.232-3.803-0.044-5.748-0.501
		c-1.246-0.291-2.92-0.673-4.732-0.374c-1.957,0.327-3.373,1.417-4.158,3.191c-2.791-1.871-4.524-4.194-5.16-6.909
		c-0.663-2.786-0.068-5.939,1.627-8.628C127.921,321.73,129.496,320.398,131.402,319.599"/>
	<path fill="#FFFFFF" d="M158.98,323.569c3.572,0,6.912,1.213,9.383,3.42c2.516,2.244,3.908,5.344,3.908,8.723
		c0,7.16-5.693,12.75-12.956,12.75c-3.485,0-6.728-1.346-9.148-3.786c-2.404-2.431-3.739-5.691-3.739-9.16
		C146.428,329.645,151.119,323.569,158.98,323.569"/>
	<path fill="#F4DE12" d="M209.418,348.09c-0.547,1.308-5.182,2.494-7.9,3.294c-3.865,1.149-5.908,1.796-6.463,2.812
		c-0.522,0.956-0.172,2.556,0.555,5.551c0.648,2.679,1.618,6.729,0.615,7.946c-0.002,0.008-0.357,0.317-2.34,0.222
		c-1.375-0.062-3.051-0.296-4.662-0.521c-3.918-0.534-5.838-0.755-6.615,0.122c-1.003,1.152-1.18,3.33-1.345,5.437
		c-0.114,1.322-0.292,3.537-0.782,3.853c-0.927,0.578-4.879-1.689-7.381-2.321c-0.822-0.374-1.697-0.673-2.604-0.896
		c0.051-1.532,0.624-3.343,0.998-4.284c0.614,0.258,1.354,0.431,2.242,0.479c2.77,0.153,5.19-1.588,6.317-4.288
		c1.22-2.922,0.663-6.134-1.734-7.777c-4.279-2.949-7.353,0.586-7.061,0.978c0.281,0.392,3.402-1.518,5.968,0.396
		c1.337,0.994,2.304,3.08,1.206,5.721c-1,2.421-3.07,3.301-4.663,3.216c-3.376-0.175-4.448-3.245-4.903-3.078
		c-0.291,0.11-0.287,1.991,1.131,3.374c-0.391,0.897-1.258,3.316-1.258,5.441v0.057c-4.348,2.698-9.249,3.167-12.648,3.059
		c-4.687-0.142-8.367-1.354-10.32-2.476c-2.381-3.576-7.076-5.687-9.705-6.633c-3.576-1.286-7.38-1.925-10.004-1.706
		c0.332-1.67,0.395-3.653,0.182-5.957c-0.367-3.938-2.279-6.217-3.826-7.435c-0.438-0.344-0.903-0.651-1.385-0.901
		c5.195-5.101,5.911-10.174,6.211-13.485c0.779,0.764,1.677,1.476,2.677,2.113c-0.446,2.036-0.04,3.879,1.196,5.354
		c3.743,4.465,12.219,3.1,12.143,2.185c-0.089-0.998-7.783,0.279-10.801-3.316c-0.932-1.103-1.187-2.478-0.764-4.077
		c0.945-3.605,4.102-3.261,7.182-2.679c2.363,0.449,4.881,0.75,6.388,0.515c0.54,2.766,1.876,5.29,3.872,7.311
		c2.693,2.723,6.309,4.218,10.181,4.218c3.886,0,7.506-1.457,10.198-4.11c2.713-2.656,4.203-6.242,4.203-10.086
		c0-0.894-0.092-1.767-0.258-2.617c2.611-3.096,4.903-1.934,5.049-2.291c0.154-0.358-1.727-2.793-5.486,0.651
		c-0.717-2.108-1.965-4.006-3.691-5.547c-0.934-0.834-1.979-1.532-3.102-2.103c0.221-3.173,3.114-4.557,3.012-4.928
		c-0.107-0.372-3.171-0.396-4.365,4.324c-1.826-0.707-3.822-1.084-5.896-1.084c-1.549,0-2.986,0.214-4.307,0.605
		c-2.193-2.358-0.843-5.687-1.188-5.887c-0.312-0.188-2.904,2.862-0.219,6.38c-1.857,0.772-3.438,1.911-4.705,3.284
		c-0.92-2.411-2.34-4.488-4.164-6.036c-0.021-0.016-0.041-0.032-0.061-0.052c0.598-1.957,3.381-3.099,3.276-3.476
		c-0.077-0.344-3.133,0.055-4.384,2.635c-1.694-1.141-3.626-1.884-5.67-2.158c-0.412-0.066-0.828-0.095-1.248-0.117
		c-0.6-2.038,1.15-4.6,0.878-4.867c-0.255-0.255-2.846,1.492-2.282,4.885c-1.41,0.085-2.784,0.405-4.062,0.945
		c-1.143,0.481-2.178,1.134-3.09,1.92c-2.578-0.853-2.359-4.24-2.733-4.31c-0.36-0.069-1.526,3.325,1.716,5.312
		c-0.4,0.465-0.783,0.955-1.112,1.485c-0.05,0.071-0.095,0.148-0.139,0.225c-1.394-1.7-3.702-4.906-5.586-8.193
		c-2.5-4.354-3.538-7.714-2.808-8.968c1.32-2.263,5.592-2.683,9.01-3.018c2.898-0.287,5.186-0.514,6.182-1.686
		c0.777-0.907,1.071-3.452,1.518-7.859c0.26-2.436,0.514-4.957,0.9-7.014c0.562-2.942,1.127-3.477,1.284-3.567
		c1.657-0.975,9.287,2.12,12.939,3.61c3.608,1.461,4.589,1.826,5.224,1.73c1.228-0.187,3.072-1.649,6.217-4.219
		c3.318-2.709,8.337-6.797,10.338-6.262c2.013,0.527,4.703,6.104,6.486,9.793c1.82,3.757,2.814,5.741,3.861,6.314
		c1.048,0.554,3.236,0.284,7.348-0.306c2.431-0.339,5.174-0.728,7.446-0.793c3.087-0.086,4.038,0.471,4.333,0.816
		c1.439,1.677,0.454,6.803-0.265,10.549c-0.685,3.571-1.077,5.817-0.57,7.118c0.556,1.439,2.892,3.004,6.665,5.417
		c1.729,1.101,3.505,2.238,4.825,3.267c1.827,1.439,1.927,2.043,1.927,2.154c0,0.255-0.177,1.075-1.77,3.251
		c-1.114,1.525-2.613,3.277-3.93,4.825c-2.764,3.256-3.821,4.568-3.91,5.471c-0.083,0.95,0.785,2.336,2.581,5.139
		c0.976,1.518,2.082,3.236,2.831,4.717C209.618,347.26,209.479,347.932,209.418,348.09"/>
	<path fill="#010101" d="M61.302,249.008c-2.421-2.228-5.627-1.142-5.4-0.325c0.062,0.193,2.583-0.06,4.292,1.28
		c-0.843,0.353-1.792,0.931-2.373,2.067c-1.065,2.11,0.048,5.45,0.678,5.302c0.554-0.131-0.248-2.953,0.597-4.646
		c0.466-0.919,1.318-1.286,2.14-1.568c1.322,2.044,1.208,4.806,1.542,4.87C63.165,256.053,64.578,252.006,61.302,249.008"/>
	<path fill="#010101" d="M91.25,230.892c2.049,0,3.706-1.69,3.706-3.774c0-2.088-1.657-3.774-3.706-3.774
		c-2.045,0-3.706,1.687-3.706,3.774C87.544,229.201,89.205,230.892,91.25,230.892"/>
	<path fill="#010101" d="M136.486,334.341c1.182,0,2.145-0.977,2.145-2.185c0-1.213-0.963-2.191-2.145-2.191
		c-1.184,0-2.148,0.979-2.148,2.191C134.338,333.364,135.303,334.341,136.486,334.341"/>
	<path fill="#010101" d="M162.371,340.492c1.346,0,2.445-1.116,2.445-2.492c0-1.371-1.1-2.484-2.445-2.484
		c-1.349,0-2.444,1.113-2.444,2.484C159.927,339.376,161.022,340.492,162.371,340.492"/>
	<path fill="#EE3238" d="M121.309,297.911c0.893,0.373,2.392,1.264,2.982,3.221c-1.461,0.165-2.931,0.375-4.266,0.752
		c-0.902-1.086-2.115-1.883-3.464-2.296c-0.179-0.421-0.329-0.875-0.479-1.352C117.588,297.339,119.594,297.205,121.309,297.911"/>
	<path fill="#EE3238" d="M115.588,304.84c-0.824,1.392-0.584,3.586,0.726,6.665c-0.621,0.21-1.269,0.318-1.938,0.318
		c-2.551,0-4.725-1.589-5.491-3.794c-0.02-0.664-0.124-1.306-0.302-1.917c0.092-2.992,2.66-5.405,5.793-5.405
		c1.585,0,3.084,0.621,4.168,1.693C117.287,302.948,116.249,303.713,115.588,304.84"/>
	<path fill="#EE3238" d="M95.863,307.438c0.379-2.927,2.814-5.19,5.765-5.19c3.207,0,5.813,2.683,5.813,5.983
		c0,3.294-2.607,5.976-5.813,5.976c-2.991,0-5.46-2.336-5.782-5.326C95.891,308.51,95.9,307.812,95.863,307.438"/>
	<path fill="#EE3238" d="M80.406,307.594c-1.151,1.242-2.769,1.954-4.44,1.954c-3.39,0-6.145-2.827-6.145-6.304
		c0-3.48,2.755-6.307,6.145-6.307c3.386,0,6.138,2.826,6.138,6.307c0,0.02,0.005,0.036,0.01,0.054
		C81.137,304.486,80.506,305.972,80.406,307.594"/>
	<path fill="#EE3238" d="M88.142,301.925c3.48,0,6.3,2.75,6.3,6.138c0,3.385-2.819,6.141-6.3,6.141
		c-3.476,0-6.303-2.756-6.303-6.141C81.839,304.675,84.666,301.925,88.142,301.925"/>
	<path fill="#EE3238" d="M61.083,299.155c0-3.158,2.598-5.732,5.812-5.732c2.212,0,4.213,1.229,5.199,3.158
		c-2.225,1.354-3.72,3.828-3.72,6.661c0,0.483,0.053,0.963,0.134,1.417c-0.522,0.151-1.06,0.229-1.613,0.229
		C63.68,304.888,61.083,302.313,61.083,299.155"/>
	<path fill="#F4DE12" d="M33.484,405.445c-3.839-8.948-5.036-19.194-3.555-30.453c1.229-9.354,4.314-19.482,9.156-30.085
		c9.263-20.29,22.031-36.016,24.746-39.246c0.933,0.43,1.969,0.676,3.063,0.676c0.685,0,1.355-0.098,2.003-0.284
		c1.105,2.893,3.853,4.938,7.069,4.938c1.652,0,3.247-0.55,4.55-1.552c0.668,3.525,3.825,6.217,7.626,6.217
		c3.037,0,5.663-1.724,6.938-4.22c1.179,2.486,3.665,4.22,6.548,4.22c3.25,0,6.015-2.2,6.931-5.225
		c1.323,1.719,3.436,2.837,5.816,2.837c0.879,0,1.729-0.148,2.54-0.444c0.415,0.857,0.899,1.77,1.456,2.745
		c2.188,3.815,4.865,7.43,6.243,9.01c-1.099,2.545-1.399,5.303-0.805,7.826c0.345,1.45,0.983,2.822,1.887,4.081
		c-0.036,1.578-0.173,3.148-0.507,4.719h-0.005c-7.635,4.513-20.866,4.441-28.076,3.987c-9.402-0.584-17.307-2.234-20.666-3.472
		c3.19-4.479,7.349-9.43,6.818-9.912c-0.398-0.357-6.501,6.355-8.948,9.902c-4.541,6.583-8.915,14.32-12.481,22.199
		c-2.832,6.25-4.708,12.271-5.415,17.414c-1.198,8.694,2.029,10.972,2.38,10.729c0.217-0.157-0.538-1.428-0.829-4.283
		c7.468,4.926,25.283,9.822,40.662,11.078c-0.32,1.433-0.129,2.74,0.563,3.438c1.881,1.887,3.992,1.247,5.295-0.017
		c1.392,0.747,3.08,0.623,4.663-0.394c0.843,0.394,1.965,0.511,3.245-0.44c0.748-0.544,1.711-1.716,2.496-2.864
		c3.357-0.435,8.28-0.139,13.576,0.831c4.223,0.773,6.966,1.643,8.174,2.177c-0.418,0.69-0.578,1.471-0.449,2.288
		c0.507,3.284,3.152,2.902,5.066,2.621c0.139-0.02,0.277-0.04,0.415-0.062c-0.952,0.897-1.697,1.952-2.084,3.017
		c-3.232-1.261-5.861-0.979-5.882-0.587c-0.029,0.539,2.59,0.779,5.6,2.258c0.041,0.803,0.342,1.5,0.896,2.025
		c0.863,0.838,1.891,0.869,2.927,0.578c0.276,0.253,0.582,0.554,0.854,0.883c-0.096,0.372-0.158,0.749-0.158,1.094v0.104
		c0.039,1.089,0.607,1.92,1.596,2.331c0.594,0.258,1.159,0.357,1.689,0.353c1.896,2.951,2.846,5.815,2.941,7.521
		c0.11,1.943-0.479,3.391-1.646,4.082c-0.803,0.464-1.803,0.525-2.586,0.167c0.068-0.534,0.081-1.101,0.021-1.704
		c-0.263-2.442-1.624-5.166-3.834-7.668c-4.68-5.291-10.775-6.899-10.994-6.38c-0.363,0.85,5.515,2.621,9.943,7.855
		c1.905,2.244,2.937,4.521,3.137,6.379c0.115,1.088,0,2.561-1.203,3.404c-1.934,1.352-3.371-0.144-6.197-3.868
		c-1.996-2.631-4.254-5.615-7.334-6.389c-0.175-0.037-0.358-0.033-0.512,0.024c-5.824,2.12-9.709,0.744-12.543-0.263
		c-1.499-0.532-2.809-0.994-4.018-0.812c-15.375,2.249-32.543,2.604-45.939,0.946c-8.387-1.031-15.377-2.827-20.795-5.324
		C39.484,413.644,35.416,409.943,33.484,405.445"/>
	<path fill="#EE3238" d="M120.496,370.592c-2.316,0.496-4.518-0.476-5.732-1.869c0.499-0.054,1.024-0.124,1.559-0.226
		c0.727-0.129,1.752-1.761,1.581-3.127c-0.134-1.097-0.819-2.029-1.834-2.517c-0.085-0.043-0.2-0.062-0.308-0.062
		c-0.342,0-0.709,0.015-1.091,0.029c-1.782,0.077-3.267,0.077-3.409-0.721c-0.061-0.311-0.051-0.516,0.035-0.621
		c0.294-0.406,1.842-0.551,3.642-0.73l0.308-0.026c0.105-0.01,0.21-0.046,0.308-0.107c1.325-0.836,1.905-2.032,1.604-3.271
		c-0.33-1.312-1.573-2.307-3.041-2.423h-0.125c-0.367,0.031-0.721,0.071-1.06,0.116c0.673-1.347,2.368-2.396,4.476-2.7
		c0.943-0.136,2.586,0.265,4.114,1.474c1.322,1.04,2.96,2.999,3.28,6.432C125.375,366.368,123.924,369.849,120.496,370.592"/>
	<path fill="#EE3238" d="M114.045,356.365c1.686,0.172,2.304,1.938,0.864,2.937c-0.048,0.01-0.109,0.015-0.109,0.015
		c-2.569,0.248-3.978,0.384-4.665,1.296c-0.783,1.053-0.404,2.657,0.888,3.277c1.026,0.488,4.305,0.354,4.569,0.35
		c1.449,0.835,0.831,2.339,0.261,2.874c-3.029,0.511-5.429,0.214-6.962-0.878c-2.862-2.052-2.517-5.889-1.316-7.407
		C108.635,357.466,110.758,356.661,114.045,356.365"/>
	<path fill="#D2E285" d="M119.23,351.061c-0.721-0.188-1.413-0.241-2.023-0.153c-3.062,0.435-5.363,2.183-5.908,4.412
		c-2.277,0.494-3.871,1.361-4.865,2.611c-0.981,1.239-1.332,2.842-1.045,4.746c0.31,2.102,1.208,3.691,2.66,4.732
		c1.283,0.924,2.959,1.389,4.998,1.403c1.294,2.161,4.451,3.904,7.752,3.192c1.879-0.408,3.316-1.454,4.252-3.111
		c0.182-0.314,0.344-0.656,0.48-1.026c2.38-0.253,6.534,0.33,9.938,1.556c1.232,0.445,2.37,0.946,3.402,1.485
		c-3.03,3.126-6.077,9.384-5.966,15.477c-2.513,2.157-6.947,7.087-7.889,10.704c-1.49-0.191-3.18-0.362-4.893-0.437
		c-1.012-2.271-2.704-3.963-4.609-4.586c-1.155-0.377-2.344-0.353-3.52,0.057c-2.379-0.276-4.345,0.216-5.854,1.099
		c-2.953-0.101-5.615,1.356-6.897,3.911c-7.915-0.612-16.657-2.197-24.652-4.479c-7.671-2.187-13.761-4.78-16.726-7.124
		c0-1.146,0.085-2.463,0.289-3.966c0.688-4.979,2.512-10.836,5.276-16.928c3.442-7.595,7.63-15.051,11.984-21.431
		c3.605,1.438,12.162,3.148,21.583,3.739c5.799,0.357,11.099,0.253,15.778-0.306c4.721-0.569,8.652-1.604,11.731-3.085
		C123.595,346.03,122,348.52,119.23,351.061"/>
	<path fill="#F4DE12" d="M116.294,395.608c-1.031-0.997-4.354,6.231-6.675,4.508c-0.426-0.31-0.864-1.079-0.851-1.991
		c0.02-0.94,0.502-2.373,2.677-3.786c1.191-0.772,2.383-0.979,3.525-0.606c1.211,0.396,2.359,1.461,3.171,2.885
		c-0.716,0-1.433,0.018-2.124,0.071C116.289,396.139,116.413,395.724,116.294,395.608"/>
	<path fill="#F4DE12" d="M103.173,396.226c-0.993,1.812-0.998,3.672-0.029,4.913c-0.931,0.854-1.862,0.745-2.707-0.101
		c-0.241-0.239-0.36-1.474,0.272-2.898c0.339-0.754,1.218-2.264,3.094-2.879C103.56,395.575,103.352,395.898,103.173,396.226"/>
	<path fill="#F4DE12" d="M104.6,400.141c-0.728-0.8-0.417-2.105,0.11-3.068c0.792-1.435,2.409-2.817,4.469-3.206
		c-1.719,1.538-2.14,3.099-2.163,4.23c-0.017,0.933,0.253,1.853,0.735,2.557C106.563,401.229,105.427,401.057,104.6,400.141"/>
	<path fill="#F4DE12" d="M153.156,403.655c1.15,1.408,1.494,2.95,1.494,4.282c0,0.603-0.072,1.166-0.167,1.647
		c-0.327,1.676-1.079,3.07-1.638,3.806c-1.031-0.354-1.404-0.139-1.996,0.568c-1.105,1.342-2.875,3.343-4.741,2.55
		c-0.358-0.153-0.56-0.377-0.521-0.769c0.291-2.994,3.805-4.933,3.495-5.544c-0.311-0.621-3.128,0.167-4.183,0.76
		c-1.686,0.954-2.852,1.527-3.479,0.917c-0.122-0.115-0.633-0.503-0.318-1.343c1.402-3.772,4.377-4.259,4.341-5.013
		c-0.048-0.756-3.251-0.94-4.431-0.77c-2.302,0.335-2.863,0.271-3.085-1.146c-0.184-1.213,0.924-1.977,1.891-2.397
		c1.774-0.797,4.443-1.05,6.967-0.668C149.604,400.962,151.861,402.065,153.156,403.655"/>
	<path fill="#8CD4DE" d="M146.934,435.399c-0.458,1.058-0.369,2.2,0.211,3.289c-2.815,0.052-5.511,0.982-5.854,3.552
		c-0.075,0.594,0.091,1.232,0.478,1.867c-7.415,3.165-11.877,3.767-14.859,4.168c-2.135,0.284-3.543,0.476-4.581,1.514
		c-0.657,0.659-1.358,1.242-2.056,1.797c-2.928,2.367-2.836,4.768-2.469,4.845c0.473,0.11,0.812-1.476,3.576-3.48
		c0.392-0.287,0.797-0.625,1.203-0.988c-4.388,8.021-5.194,15.069-5.86,20.855c-0.688,5.945-1.183,10.242-5.36,12.563
		c-1.594,0.888-3.447,0.788-5.477-0.311c-3.662-1.967-7.721-7.01-11.127-13.828c-3.383-6.742-5.58-14.1-6.05-20.179
		c-1.311-17.187,4.524-23.529,9.712-26.986c4.763-0.335,9.528-0.841,14.126-1.512c0.788-0.117,1.841,0.255,3.175,0.737
		c2.869,1.011,7.182,2.533,13.441,0.349c2.378,0.726,4.29,3.237,6.139,5.678c1.248,1.647,2.43,3.211,3.73,4.145
		c1.637,1.184,3.275,1.218,4.871,0.098c0.611-0.428,1.089-0.977,1.413-1.636c1.261,0.497,2.755,0.378,3.978-0.349
		c1.026-0.596,2.707-2.129,2.516-5.677c0.927-0.717,2.145-1.872,2.705-3.725c0.566-1.876,0.356-4.102-0.632-6.635
		c1.355,0.375,3.188,0.793,5.194,1.092c3.531,0.521,8.712,0.84,13.363-0.568c1.611-0.491,3.058-1.15,4.326-1.981
		c-0.325,5.052-2.288,11.56-7.049,15.17c-7.025,5.342-12.951,4.798-16.871,4.439C150.164,433.454,147.852,433.24,146.934,435.399"/>
	<path fill="#F4DE12" d="M151.914,415.413c2.053,4.576,1.062,6.963-0.443,8.455c-0.459-1.807-1.361-3.87-2.566-5.847
		C150.09,417.436,151.081,416.37,151.914,415.413"/>
	<path fill="#EE3238" d="M75.565,752.891c0-0.196,0.005-0.396,0.01-0.588c0.066-2.492,0.537-3.008,0.616-3.074
		c0.659,0.156,2.786,2.655,4.3,4.508c-1.411,0.243-3.553,0.61-4.875,0.787C75.596,754.074,75.565,753.506,75.565,752.891"/>
	<path fill="#EE3238" d="M126.393,766.342c-2.821,2.052-9.859,1.885-19.815-0.44c-8.447-1.972-16.029-4.812-17.72-5.782
		c-1.766-1.012-4.263-4.097-6.465-6.823c-2.941-3.639-4.67-5.691-6.059-5.815c-0.534-0.053-1.026,0.144-1.416,0.54
		c-0.707,0.72-1.067,2.187-1.101,4.493c-0.014,0.772,0.015,1.503,0.043,2.052c-1.528-0.08-2.77-0.382-4.685-1.685
		c-1.236-0.841-1.669-3.161-1.669-6.255c0-2.149,0.206-4.661,0.497-7.32c1.258,0.778,2.967,1.877,4.995,3.165
		c11.096,7.113,21.307,13.476,24.297,13.261c1.613-0.12,3.896-1.013,6.543-2.049c4.214-1.643,9.437-3.686,13.792-3.274
		C125.044,757.541,129.177,764.336,126.393,766.342"/>
	<path fill="#F4DE12" d="M96.98,693.797c-0.311,10.743-0.716,24.117,1.487,31.925c1.764,6.227,7.68,14.033,17.574,23.191
		c-4.254,0.119-8.898,1.929-12.72,3.428c-2.536,0.984-4.732,1.843-6.126,1.943c-0.654,0.053-2.765-0.458-9.552-4.401
		c-4.552-2.657-9.714-5.96-13.856-8.619c-2.352-1.504-4.295-2.756-5.596-3.538c0.165-1.413,0.346-2.86,0.537-4.287
		c0.726-5.74,1.585-12.187,1.511-18.136c-0.086-6.608-1.563-17.872-2.87-27.809c-0.737-5.548-1.427-10.815-1.733-14.324
		c2.629,1.131,5.623,2.225,8.932,3.241c6.919,2.135,14.573,3.769,22.47,4.828C97.276,683.88,97.133,688.502,96.98,693.797"/>
	<path fill="#EE3238" d="M142.699,750.245c-0.125-1.814-0.064-4.35,0.826-4.283c0.41,0.085,1.518,0.97,2.77,2.054
		C145.426,748.536,143.897,749.457,142.699,750.245"/>
	<path fill="#EE3238" d="M199.83,758.404c0.451,2.526-6.117,3.854-17.229,3.007c-8.086-0.629-16.807-2.304-21.23-4.066
		c-3.56-1.428-8.072-5.458-11.691-8.68c-3.282-2.937-4.913-4.354-5.985-4.456c-2.466-0.217-2.97,3.916-2.698,6.819
		c-1.439-0.015-4.259-0.674-6.803-2.808c-1.564-1.294-1.154-6.193-0.557-12.468c1.893,0.941,4.784,2.507,8.035,4.274
		c13.072,7.121,23.305,12.5,26.324,11.641c1.527-0.426,3.046-1.337,4.641-2.306c2.846-1.724,6.098-3.653,10.956-3.41
		c1.302,0.893,2.925,1.913,4.639,2.956C192.93,751.815,199.357,755.779,199.83,758.404"/>
	<path fill="#F4DE12" d="M160.309,689.566c-0.344,10.199-0.73,21.749,1.327,32.631c0.568,3.051,3.894,7.544,9.874,13.374
		c3.873,3.777,7.884,7.145,10.125,8.925c-4.022,0.152-7.16,2.061-9.752,3.634c-1.51,0.912-2.932,1.78-4.278,2.158
		c-0.635,0.172-2.765-0.048-9.894-3.476c-4.852-2.341-10.424-5.368-15.347-8.052c-3.552-1.933-6.673-3.628-8.582-4.54
		c0.425-4.555,0.909-10.079,0.909-16.182c0-14.654-1.441-27.35-2.459-35.969c8.198-0.731,15.566-2.13,21.773-4.169
		c2.32-0.764,4.455-1.6,6.417-2.512C160.652,679.382,160.48,684.343,160.309,689.566"/>
	<path fill="#D2E285" d="M155.318,515.895c3.084,11.687,6.002,22.729,7.626,32.39c3.644,21.585,6.565,48.842,8.005,74.775
		c1.365,24.64,0.924,39.657-0.231,41.765c-2.459,4.517-8.585,8.57-17.261,11.411c-9.879,3.232-22.781,4.847-37.311,4.651
		c-14.215-0.178-28.798-2.369-41.069-6.155c-7.723-2.383-17.762-6.566-19.706-10.691c-1.039-2.211-0.773-2.96-0.012-5.204
		c0.711-2.054,1.783-5.166,2.399-11.224c0.74-7.155,0.657-16.81-0.243-28.703c-1.431-18.979-3.493-34.57-6.489-49.067
		c-2.712-13.087-5.953-24.141-9.383-35.84c-1.819-6.207-3.698-12.615-5.639-19.787c-2.708-9.987-4.13-20.128-4.216-30.142
		c-0.084-8.939,0.893-17.83,2.893-26.405c1.776-7.611,4.336-14.902,7.602-21.659c2.77-5.715,6.05-11.016,9.509-15.367
		c4.209,1.258,9.008,2.218,14.346,2.879c8.638,1.067,18.818,1.309,29.088,0.757c-2.709,2.239-4.714,4.938-6.081,8.17
		c-2.065,4.855-2.781,10.996-2.184,18.75c0.478,6.299,2.741,13.889,6.222,20.837c3.567,7.13,7.892,12.448,11.865,14.583
		c2.561,1.375,5.043,1.484,7.172,0.296c4.961-2.755,5.525-7.673,6.246-13.901c0.727-6.238,1.609-13.983,7.179-22.778
		c0.442-0.072,0.927-0.139,1.497-0.216c2.502-0.336,6.422-0.863,12.386-3.117c1.218,2.254,3.409,4.034,6.331,5.199
		C142.789,468.411,149.154,492.543,155.318,515.895"/>
	<path fill="#F4DE12" d="M189.975,412.407c0.84,3.609,0.797,7.627-0.115,11.631c-1.045,4.537-3.156,8.991-6.264,13.255
		c-3.744,5.119-8.945,9.173-15.058,11.737c-5.407,2.269-11.233,3.241-16.404,2.735c-5.276-0.516-9.22-2.507-10.948-5.51
		c0.574-0.237,1.17-0.487,1.783-0.753c0.15,0.134,0.311,0.266,0.48,0.399c2.162,1.694,5.431,2.937,8.976,3.402
		c7.946,1.043,14.47-2.008,14.101-2.934c-0.191-0.493-6.575,2.086-13.59,1.226c-3.963-0.481-6.914-1.909-8.402-3.069
		c-1.109-0.879-1.555-1.664-1.5-2.056c0.291-2.223,4.314-2.084,5.635-1.975c1.843,1.573,4.731,2.621,8.021,2.903
		c6.777,0.588,14.248-2.558,13.741-3.674c-0.315-0.727-6.541,2.54-13.594,1.926c-3.112-0.268-5.868-1.315-7.37-2.803
		c-0.561-0.535-1.41-1.623-0.919-2.755c0.382-0.902,1.385-0.897,4.14-0.646c4.184,0.384,10.52,0.972,18.1-4.787
		c5.718-4.345,7.756-12.382,7.779-17.973c0.982-0.905,1.824-1.953,2.52-3.123c0.473,0.039,0.853,0.208,1.182,0.514
		c1.59,1.5,1.555,5.914,1.543,9.142c-0.033,3.896,1.403,5.772,1.843,5.438c0.392-0.292-0.109-2.354-0.091-5.43
		c0.033-3.746,0.053-8.403-2.096-10.428c-0.449-0.43-0.968-0.716-1.553-0.872c0.674-1.582,1.203-3.583,1.528-5.798
		C186.587,404.264,188.926,407.926,189.975,412.407"/>
	<path fill="#8CD4DE" d="M182.105,396.55c-0.012,4.393-0.771,8.58-2.029,11.192c-1.533,3.156-4.164,5.361-7.826,6.551
		c-6.267,2.029-13.93,0.621-17.638-0.373c0.654-1.012,1.279-2.421,1.593-3.991c0.126-0.597,0.205-1.279,0.205-2.011
		c0-1.666-0.436-3.591-1.898-5.378c-0.471-0.581-1.045-1.106-1.705-1.578c6.238-2.65,14.994,0.219,15.175-0.224
		c0.241-0.646-2.569-1.84-6.321-2.28c0.596-0.968,1.549-1.774,2.635-2.2c3.011-1.179,5.057,0.359,5.286-0.066
		c0.175-0.325-1.375-2.196-4.143-1.977c1.183-5.014-2.331-7.387-2.602-7.124c-0.271,0.253,2.345,3.626,0.962,7.478
		c-0.053,0.023-0.1,0.038-0.15,0.058c-1.738,0.645-3.173,2.053-3.904,3.681c-2.873-0.114-6.044,0.272-8.764,1.619
		c-1.167-0.53-2.484-0.907-3.93-1.127c-2.891-0.431-5.854-0.139-7.949,0.797c-0.442,0.201-0.844,0.426-1.188,0.674
		c-2.005-1.132-6.58-2.118-8.752-2.526c-0.606-0.114-1.432-0.263-2.395-0.406c0.9-2.974,4.961-7.732,7.58-9.864
		c0.215-0.181,0.337-0.448,0.332-0.726c-0.289-6.433,3.479-12.677,5.779-14.932c1.768,1.123,3.113,2.384,3.963,3.715
		c0.707,1.13,6.533,2.956,11.613,3.109c3.682,0.109,9.015-0.401,13.771-3.414c4.169,0.931,7.358,3.579,9.499,7.893
		C181.112,386.732,182.11,391.508,182.105,396.55"/>
	<path fill="#010101" d="M172.159,364.993c0.311,0.066,1.099-1.309,1.819-2.062c1.18,1.622-0.403,3.455-0.103,3.704
		c0.272,0.225,3.056-1.466,1.406-4.179c0.85,0.096,2.024,0.401,2.191,0.158c0.234-0.35-1.694-2.178-3.462-1.471
		C172.164,361.879,171.541,364.85,172.159,364.993"/>
	<path fill="#010101" d="M169.16,298.465c-1.513-1.165-4.373-0.314-5.531,0.103c-1.109,0.398-2.256,0.963-3.215,1.609
		c-0.989-1.148-2.326-1.717-3.734-1.563c-0.383,0.038-0.75,0.134-1.098,0.263c-1.996-4.376-3.961-6.375-5.838-5.949
		c-2.008,0.451-3.756,3.566-4.589,6.452c-0.389,1.359-1.144,4.688,0.37,6.209c1.703,1.696,4.219,1.211,7.459-0.128
		c0.276,0.634,0.691,1.194,1.223,1.604c0.644,0.492,2.32,1.39,4.779-0.238c1.365,2.727,4.029,5.318,6.269,4.474
		c2.362-0.888,4.541-5.143,5.023-8.389C170.589,300.798,170.202,299.26,169.16,298.465"/>
	<path fill="#8CD4DE" d="M152.959,301.482c-0.352,0.807-0.459,1.715-0.357,2.574c-3.323,1.385-5.027,1.526-6.049,0.503
		c-0.647-0.642-0.647-2.565-0.01-4.781c0.812-2.789,2.354-5.181,3.514-5.448c1.043-0.234,2.703,1.829,4.276,5.29
		C153.762,300.108,153.289,300.733,152.959,301.482"/>
	<path fill="#8CD4DE" d="M155.09,305.919c-1.008-0.778-1.381-2.543-0.803-3.858c0.502-1.139,1.456-1.896,2.545-2.011
		c0.922-0.104,1.777,0.261,2.449,1.031c-0.599,0.566-1.021,1.179-1.164,1.799c-0.163,0.704-0.034,1.616,0.291,2.58
		C157.1,306.408,155.933,306.568,155.09,305.919"/>
	<path fill="#8CD4DE" d="M168.846,302.698c-0.443,3.051-2.471,6.637-4.1,7.248c-2.833,1.067-5.45-5.729-5.221-6.744
		c0.231-0.975,2.282-2.44,4.594-3.278c1.859-0.669,3.533-0.798,4.168-0.312C168.86,300.058,169.075,301.183,168.846,302.698"/>
	<path fill="#010101" d="M118.013,354.685c-0.19,0.253,1.978,2.191,2.765,5.143c1.204,4.444-1.889,8.556-1.279,8.924
		c0.723,0.438,3.705-4.159,2.822-8.666C121.489,355.868,118.156,354.508,118.013,354.685"/>
	<path fill="#C52126" d="M82.502,308.311c0.501,5.755,6.829,6.499,9.889,3.328c-1.542,0.73-3.982,1.261-6.24-0.878
		c-3.023-2.846-1.925-6.031-1.175-7.453C83.388,304.263,82.302,305.942,82.502,308.311"/>
	<path fill="#C52126" d="M105.389,311.906c-5.912,1.829-8.222-3.036-8.862-4.862c-0.082,0.47-0.136,0.971-0.082,1.52
		C96.89,313.735,102.487,314.585,105.389,311.906"/>
	<path fill="#C52126" d="M74.275,304.919c-2.581-2.911-0.573-5.852,0.563-7.125c-1.805,0.299-3.45,1.449-4.216,3.632
		c-2.168,6.098,5.34,9.846,9.822,5.772c0.071-0.645,0.229-1.261,0.463-1.848C79.446,306.136,76.367,307.289,74.275,304.919"/>
	<path fill="#78D0E5" d="M97.228,455.264c-5.997-23.28,12.376-32.39,16.889-29.778c4.512,2.611,12.667,1.327,13.811,1.184
		c1.148-0.152,1.922,0.096,7.509,6.265c3.528,3.888,7.153,1.996,8.466,0.638c-1.596,1.12-3.232,1.086-4.871-0.098
		c-1.301-0.94-2.482-2.497-3.73-4.145c-1.849-2.44-3.761-4.952-6.137-5.678c-6.262,2.185-10.578,0.664-13.443-0.349
		c-1.334-0.482-2.387-0.854-3.175-0.737c-4.599,0.671-9.358,1.177-14.126,1.512c-5.188,3.452-11.023,9.805-9.714,26.986
		c0.473,6.079,2.669,13.427,6.052,20.181c3.407,6.816,7.46,11.859,11.127,13.826c2.027,1.099,3.883,1.198,5.477,0.311
		c0.74-0.411,1.361-0.884,1.887-1.414C109.142,483.169,102.07,474.055,97.228,455.264"/>
	<path fill="#EF9C20" d="M87.316,315.714c-3.083-0.537-5.933-2.796-6.723-5.856c-0.773,0.522-1.604,0.898-2.459,1.128
		C81.357,314.757,84.632,315.786,87.316,315.714"/>
	<path fill="#C52126" d="M71.625,296.89c-2.206-3.424-7.893-3.426-9.323,0.63c-1.435,4.035,2.118,7.266,6.138,6.699
		c-0.04-0.315-0.067-0.646-0.067-0.975C68.374,300.616,69.668,298.289,71.625,296.89"/>
	<path fill="#EF9C20" d="M95.113,311.87c-0.427,0.776-0.95,1.479-1.581,2.062c3.93,3.785,8.218,2.587,10.188,1.704
		c-0.561,0.134-1.139,0.207-1.755,0.197C99.205,315.774,96.483,314.229,95.113,311.87"/>
	<path fill="#F16475" d="M110.13,303.308c1.026-0.562,3.361-0.652,6.181,0.572c0.487-0.504,1.072-0.907,1.731-1.243
		C115.482,300.289,111.824,300.927,110.13,303.308"/>
	<path fill="#F16475" d="M116.208,298.608c0.105,0.345,0.225,0.668,0.354,0.975c0.509,0.16,0.988,0.369,1.446,0.62
		c0.979-0.139,2.76,0.082,3.863,1.269c0.688-0.123,1.385-0.218,2.082-0.302C122.549,298.465,118.918,297.06,116.208,298.608"/>
	<path fill="#F16475" d="M106.725,309.853c0.21-0.579,0.354-1.212,0.366-1.929c-0.456-5.224-6.702-6.04-9.418-3.16
		C99.971,303.728,106.365,304.004,106.725,309.853"/>
	<path fill="#EF9C20" d="M69.653,256.041c-0.917,2.315-2.108,0.549-2.815-2.535c-0.723-3.151-4.056-7.795-8.639-6.953
		c-2.736,0.502-4.544,3.271-5.458,5.793c0.124,2.038,0.983,4.102,2.442,5.845c1.437,1.742,3.362,2.82,5.159,3.342
		c4.284,1.246,6.979-4.179,7.42-3.969c0.581,0.274-0.241,3.304-2.671,4.913c1.836,4.714,6.019,19.916,4.567,30.039
		c1.595,0.649,2.939,1.857,3.734,3.438c0.802-0.301,1.67-0.465,2.571-0.465c0.406,0,0.81,0.033,1.211,0.098
		C77.57,267.985,70.551,253.797,69.653,256.041 M62.773,255.985c-0.332-0.063-0.215-2.823-1.54-4.867
		c-0.819,0.284-1.669,0.649-2.137,1.565c-0.845,1.692-0.042,4.515-0.602,4.648c-0.627,0.15-1.741-3.194-0.671-5.297
		c0.571-1.139,1.53-1.72,2.371-2.072c-1.709-1.34-4.23-1.087-4.292-1.275c-0.224-0.816,2.977-1.909,5.4,0.32
		C64.578,252.006,63.165,256.051,62.773,255.985"/>
	<path fill="#EF9C20" d="M79.633,203.842c0.04-0.042,0.071-0.065,0.109-0.061c0.041,0,0.095,0.052,0.144,0.146
		c3.051-1.45,5.973-3.589,7.678-6.783c0,0,3.352,1.088,7.563,0.845c0.082-0.225,0.315-0.229,0.642-0.045
		c3.312-0.296,7.084-1.456,10.13-4.639c0,0,9.483,5.877,18.297,0.372c0,0,4.288,3.066,9.44,2.748c0.045-0.2,0.305-0.217,0.678-0.06
		c1.604-0.188,3.275-0.74,4.904-1.814c-3.891,0.478-8.738,0.614-13.848-2.273c-4.316,1.213-11.054,3.571-19.417-1.671
		c-1.148,1.131-3.001,2.497-5.861,3.455c-3.552,1.182-7.816,1.459-12.701,0.831c-4.45,4.52-9.349,7.88-18.187,9.519
		c0.27,0.821,0.475,1.678,0.611,2.56c2.217-0.38,6.083-1.293,9.346-2.715C79.268,203.896,79.433,203.73,79.633,203.842"/>
	<path fill="#E9E74A" d="M133.049,237.013c2.581-0.329,8.408-1.095,8.881,4.456c0.297,3.411-1.6,6.728-4.803,8.536
		c2.067-0.645,3.82-1.617,5.135-2.864c1.834-1.745,2.652-3.863,2.305-5.974c-0.512-3.123-2.092-5.103-4.809-6.035
		c-1.871-0.643-4.264-0.783-7.314-0.417c-1.744,0.197-10.062,1.085-13.482-0.185c-0.279,0.63-0.6,1.247-0.941,1.853
		C121.355,237.677,124.831,238.061,133.049,237.013"/>
	<path fill="#E9E74A" d="M157.945,253.157c-3.725-2.971-8.312-6.632-9.498-15.87c-0.739,0.81-1.541,1.598-2.416,2.359
		c0.105,0.391,0.196,0.804,0.266,1.236c0.121,0.771,0.136,1.554,0.025,2.305c1.252,3.433,3.974,8.475,8.646,10.908
		c4.49,2.332,6.147,7.007,5.852,10.208c1.172-1.263,1.8-2.614,1.841-4.049C162.748,256.981,160.738,255.377,157.945,253.157"/>
	<path fill="#E9E74A" d="M113.825,280.622c-1.663-0.065-4.325,3.618-2.358,19.233c0.883-0.382,1.877-0.598,2.91-0.598
		c0.055,0,0.121,0,0.184,0.005c-1.466-4.384-1.432-13.271-0.64-15.525c0.129-0.346,0.461-0.584,0.831-0.584
		c2.6,0,4.699-0.975,5.896-2.742c1.051-1.537,1.275-3.504,0.645-5.458c-0.84-0.002-1.689-0.009-2.537-0.022
		C119.209,277.01,119.149,280.832,113.825,280.622"/>
	<path fill="#A7CF44" d="M77.298,343.85c-0.726-0.219-1.354-0.435-1.884-0.645c-4.352,6.377-8.54,13.838-11.982,21.428
		c-2.767,6.1-4.589,11.958-5.276,16.927c-0.206,1.509-0.286,2.821-0.286,3.967c1.489,1.178,3.77,2.424,6.644,3.645
		C63.592,373.317,73.669,351.021,77.298,343.85"/>
	<path fill="#A7CF44" d="M132.906,386.385c-0.111-6.093,2.936-12.348,5.971-15.477c-1.034-0.539-2.175-1.038-3.407-1.48
		c-3.404-1.226-7.559-1.813-9.938-1.556c-0.141,0.362-0.299,0.704-0.482,1.026c-0.934,1.657-2.371,2.698-4.252,3.104
		c-3.299,0.712-6.456-1.026-7.75-3.189c-2.039-0.015-3.715-0.481-4.998-1.403c-1.455-1.041-2.35-2.631-2.663-4.732
		c-1.393,5.148,5.231,8.074,5.231,8.074s0.675,2.158,4.774,3.242c6.838,1.799,9.416-2.259,9.416-2.259
		c5.106-0.333,8.394,1.648,8.394,1.648c-3,4.072-4.449,13.104-4.449,13.104c-3.715,2.127-6.384,7.359-7.664,10.22
		c1.373,0.088,2.713,0.225,3.93,0.38C125.959,393.465,130.396,388.542,132.906,386.385"/>
	<path fill="#C52126" d="M117.664,358.035c0.049,0.153,0.064,0.302,0.029,0.459c-0.211,0.917-0.654,2.04-1.669,2.358
		c-1.173,0.368-3.517-0.204-4.343,0.793c-0.945,1.141,3.137,0.736,3.434,0.722c0.334-0.024,0.768,0.037,1.08,0.195
		c0.854,0.425,1.416,0.879,1.953,1.682c1.164,1.727,0.041,4.211-1.961,4.563c-0.352,0.067-0.705,0.098-1.049,0.134
		c3.379,2.745,6.878,1.262,8.625-1.843c-0.375,0.472-0.945,0.979-1.506,0.654c-0.337-0.195-0.432-0.55-0.42-0.937
		c-1.313,2.298-3.414,2.866-2.234,0.029c1.268-3.037,1.428-6.666-0.479-9.459c-0.914-1.511-1.078-2.315-0.825-2.583
		c-1.88-1.067-3.577-0.535-4.421-0.229c-0.013,0.009-0.022,0.028-0.034,0.038C115.836,354.758,117.488,355.706,117.664,358.035"/>
	<path fill="#C52126" d="M107.16,363.162c0.559,2.58,2.6,3.793,5.158,3.846c0.867,0.024,1.738-0.028,2.596-0.179
		c1.268-0.061,1.413-0.849,0.435-2.361c-0.296,0.043-0.585,0.086-0.869,0.129c-2.034,0.148-5.252-0.177-5.048-2.999
		c0.247-3.438,4.557-1.599,5.874-3.256c-4.295-0.769-6.732,0.787-7.931,2.054C107.045,361.226,106.938,362.154,107.16,363.162"/>
	<path fill="#A7CF44" d="M69.362,540.897c-21.769-66.57-3.82-109.906-2.409-109.544c8.79,2.244,15.069-0.367,14.833,1.036
		c-3.519,21.314,5.114,47.558,16.232,56.066c9.504,7.267,13.253,0.405,14.201-1.543c-2.127,1.188-4.607,1.079-7.167-0.296
		c-3.97-2.135-8.295-7.453-11.867-14.583c-3.481-6.948-5.742-14.538-6.229-20.837c-0.59-7.759,0.126-13.895,2.189-18.75
		c1.369-3.237,3.374-5.931,6.079-8.175c-10.266,0.554-20.446,0.315-29.086-0.754c-5.335-0.659-10.134-1.622-14.346-2.874
		c-3.457,4.34-6.737,9.649-9.507,15.364c-3.266,6.757-5.825,14.043-7.602,21.659c-2,8.575-2.975,17.466-2.893,26.405
		c0.086,10.012,1.508,20.154,4.213,30.142c1.943,7.172,3.823,13.585,5.642,19.787c3.428,11.699,6.673,22.758,9.378,35.835
		c3.003,14.502,5.063,30.088,6.494,49.07c0.898,11.891,0.981,21.55,0.243,28.702c-0.616,6.061-1.69,9.173-2.401,11.227
		c-0.759,2.244-1.027,2.998,0.014,5.199c1.941,4.13,11.982,8.313,19.706,10.696c0.649,0.2,1.308,0.396,1.972,0.586
		C76.458,660.44,85.996,591.783,69.362,540.897"/>
	<path fill="#A7CF44" d="M139.528,446.9c-5.964,2.254-9.884,2.784-12.386,3.117c-0.57,0.077-1.055,0.142-1.497,0.216
		c-1.874,2.95-3.216,5.782-4.199,8.482C127.353,456.101,137.179,451.44,139.528,446.9"/>
	<path fill="#C9DF89" d="M170.718,664.829c1.151-2.112,1.597-17.133,0.229-41.767c-1.438-25.941-4.357-53.196-8.003-74.778
		c-1.626-9.664-4.542-20.703-7.628-32.388c-6.16-23.354-12.527-47.487-9.457-63.801c-1.6-0.631-2.982-1.461-4.1-2.44
		c-6.135,35.879,8.617,62.006,15.121,101.584c6.262,38.037,12.188,106.413,5.975,120.881
		C166.59,669.947,169.279,667.459,170.718,664.829"/>
	<path fill="#E9E74A" d="M189.975,412.407c-1.049-4.481-3.388-8.144-6.532-10.275c-0.136,0.897-0.296,1.752-0.492,2.573
		c2.612,3.13,8.161,11.637,5.98,22.552c0.368-1.064,0.679-2.144,0.929-3.219C190.771,420.034,190.814,416.017,189.975,412.407"/>
	<path fill="#E9E74A" d="M181.781,419.86c-0.119,4.222,1.638,6.484,3.38,7.033c1.429,0.449,1.127-1.217,0.492-2.234
		c-0.439,0.339-1.874-1.542-1.843-5.438c0.014-3.228,0.047-7.645-1.545-9.14c-0.327-0.306-0.709-0.481-1.178-0.52
		c-0.424,0.73-0.922,1.412-1.468,2.039C180.818,411.963,181.953,414.054,181.781,419.86"/>
	<path fill="#C52126" d="M73.001,742.476c-2.025-1.293-3.739-2.392-4.995-3.17c-0.292,2.659-0.497,5.171-0.497,7.324
		c0,3.095,0.433,5.41,1.667,6.256c1.917,1.293,3.159,1.609,4.687,1.68c-0.031-0.539-0.059-1.283-0.045-2.052
		c0.036-2.312,0.396-3.775,1.104-4.498c0.392-0.394,0.879-0.588,1.409-0.535c-0.304-0.697-0.519-2.097-0.64-3.286
		C74.796,743.627,73.903,743.054,73.001,742.476"/>
	<path fill="#C52126" d="M137.943,738.012c-1.7-0.921-3.183-1.704-4.307-2.249c-0.598,6.26-1.01,11.161,0.559,12.458
		c1.152,0.97,2.358,1.623,3.471,2.067C137.012,746.769,137.408,741.059,137.943,738.012"/>
	<path fill="#F16475" d="M199.83,758.404c-0.473-2.625-6.9-6.589-11.599-9.496c-1.714-1.043-3.337-2.063-4.639-2.956
		c-1.747-0.086-3.306,0.104-4.698,0.479c4.698,2.701,16.299,9.907,19.201,14.037C199.366,759.943,199.978,759.24,199.83,758.404"/>
	<path fill="#F16475" d="M117.631,750.408c-0.876-0.077-1.8-0.059-2.736,0.037c2.77,3.495,8.863,11.827,10.666,16.383
		c0.312-0.144,0.588-0.301,0.832-0.486C129.18,764.326,125.044,757.536,117.631,750.408"/>
	<path fill="#EF9C20" d="M76.615,682.295c-0.721-1.729,6.09-2.316,11.581-2.502c-4.753-0.922-9.332-2.059-13.629-3.377
		c-3.307-1.021-6.303-2.115-8.934-3.246c0.311,3.504,0.999,8.776,1.733,14.324c1.309,9.937,2.784,21.2,2.872,27.804
		c0.074,5.959-0.785,12.396-1.511,18.136c-0.191,1.432-0.372,2.879-0.537,4.287c1.301,0.787,3.245,2.039,5.594,3.538
		c0.572,0.373,1.167,0.76,1.781,1.142C78.644,725.741,77.751,684.988,76.615,682.295"/>
	<path fill="#EF9C20" d="M138.268,715.786c-0.215-11.074-1.17-26.993-1.694-34.175c-1.413,0.173-2.86,0.33-4.343,0.459
		c1.017,8.619,2.461,21.31,2.461,35.969c0,6.103-0.482,11.627-0.912,16.182c1.117,0.525,2.65,1.328,4.436,2.294
		C138.144,731.973,138.436,723.845,138.268,715.786"/>
	<path fill="#E9E74A" d="M171.51,735.571c-5.982-5.825-9.306-10.323-9.874-13.384c-2.06-10.872-1.671-22.427-1.327-32.621
		c0.172-5.229,0.344-10.18,0.114-14.181c-1.03,0.481-2.115,0.95-3.257,1.385c-0.014,5.916-0.104,18.616-0.26,30.286
		c-0.086,6.518-0.02,12.997,2.781,18.163c4.254,7.831,13.15,15.532,17.93,20.026c1.236-0.405,2.564-0.688,4.018-0.745
		C179.394,742.721,175.383,739.349,171.51,735.571"/>
	<path fill="#E9E74A" d="M98.47,725.717c-2.204-7.807-1.8-21.182-1.49-31.92c0.158-5.295,0.292-9.922,0.057-12.558
		c-0.912-0.119-1.833-0.253-2.745-0.396c1.251,15.39-3.467,39.803,4.412,52.258c4.273,6.73,11.082,13.01,14.783,16.07
		c0.864-0.144,1.715-0.229,2.555-0.258C106.147,739.755,100.231,731.943,98.47,725.717"/>
	<path fill="#EF9C20" d="M136.311,317.299c0.42,0.015,0.836,0.051,1.25,0.115c0.803,0.105,1.578,0.286,2.34,0.532
		c-1.146-0.912-2.764-1.375-3.719-1.608C136.182,316.664,136.22,316.992,136.311,317.299"/>
	<path fill="#78D0E5" d="M160.089,303.396c-0.511,0.751,0.776,3.849,1.712,4.811c1.797,1.857,3.342,1.352,4.472-0.062
		C164.967,308.299,161.869,308.119,160.089,303.396"/>
	<path fill="#78D0E5" d="M154.584,302.462c-0.402,0.965-0.352,2.445,0.694,3.094c0.838,0.519,2.046,0.217,2.991-0.539
		c-0.064-0.22-0.109-0.435-0.148-0.64C156.885,304.72,154.729,304.907,154.584,302.462"/>
	<path fill="#B6E2E8" d="M155.72,301.034c0.69,0.1,1.888,0.754,2.595,1.296c0.156-0.322,0.38-0.627,0.662-0.934
		C158.023,300.37,156.632,300.298,155.72,301.034"/>
	<path fill="#B6E2E8" d="M168.01,299.722c-1.703-0.483-4.363,0.865-6.078,1.981c2.525-0.617,5.627-0.783,6.098,1.881
		C168.459,302.036,168.7,300.332,168.01,299.722"/>
	<path fill="#78D0E5" d="M148.032,302.968c-0.669-0.438-0.649-2.619-0.501-4.384c-0.616,1.691-1.418,3.787-0.773,5.47
		c0.422,1.125,4.275,0.289,5.822-0.279c-0.021-0.314-0.017-0.64,0.024-0.952C151.312,303.092,148.801,303.46,148.032,302.968"/>
	<path fill="#B6E2E8" d="M149.254,295.383c1.082,0.699,3.222,4.2,3.988,5.552c0.195-0.328,0.415-0.627,0.666-0.898
		c-0.623-1.387-1.593-3.344-2.5-4.394C150.592,294.708,149.858,294.822,149.254,295.383"/>
	<path fill="#78D0E5" d="M154.044,394.507c-0.136-0.636-2.431-1.731-4.894-2.604c-2.766-0.979-5.769-1.638-5.855-2.716
		c-0.379-4.767,3.494-9.688,5.344-11.718c-2.203-0.625-3.857-1.361-4.224-1.935c-0.843-1.332-2.188-2.592-3.958-3.717
		c-2.299,2.256-6.066,8.496-5.779,14.929c0.004,0.282-0.115,0.545-0.33,0.723c-2.621,2.132-6.68,6.894-7.582,9.863
		c0.965,0.147,1.787,0.296,2.396,0.41c2.172,0.406,6.742,1.395,8.75,2.526c0.261-0.187,0.561-0.365,0.886-0.525
		C142.868,392.562,154.269,395.566,154.044,394.507"/>
	<path fill="#78D0E5" d="M160.734,394.797c-2.295,1.089-3.906,1.939-4.919,3.695c1.327-0.19,2.652-0.233,3.935-0.181
		c0.728-1.633,2.158-3.041,3.898-3.686c0.051-0.021,0.098-0.038,0.15-0.058c0.547-1.52,0.468-2.961,0.186-4.174
		C163.462,391.895,162.438,393.99,160.734,394.797"/>
	<path fill="#B6E2E8" d="M182.105,396.55c0.005-5.042-0.993-9.817-2.801-13.432c-2.141-4.313-5.33-6.962-9.499-7.893
		c-0.866,0.554-1.767,1.023-2.659,1.418c2.74,0.773,9.403,3.479,11.76,11.402c2.244,7.529,1.34,17.419-0.795,22.604
		c0.785-0.855,1.433-1.824,1.965-2.91C181.334,405.13,182.094,400.942,182.105,396.55"/>
	<path fill="#EF9C20" d="M126.227,359.956c0.004,0.052,0.008,0.102,0.014,0.152c0.215,2.304,0.157,4.287-0.177,5.952
		c2.621-0.219,6.427,0.43,10.001,1.711c2.631,0.951,7.327,3.057,9.702,6.633c1.058,0.605,2.614,1.241,4.579,1.719
		C145.748,362.457,130.466,360.247,126.227,359.956"/>
	<path fill="#EF9C20" d="M133.445,341.286c0.15-1.664,1.991-3.181,3.4-3.731c-2.346-0.232-4.412,0.179-5.155,2.991
		c-0.42,1.602-0.165,2.975,0.767,4.077c1.423,1.698,3.887,2.307,6.111,2.584C133.391,345.406,133.354,342.255,133.445,341.286"/>
	<path fill="#EF9C20" d="M131.42,346.099c-0.109-0.109-0.212-0.229-0.305-0.349c-1.239-1.468-1.643-3.309-1.193-5.35
		c-1-0.64-1.9-1.35-2.68-2.113c-0.3,3.312-1.016,8.385-6.211,13.482c0.434,0.236,0.863,0.504,1.263,0.809
		C127.047,352.048,129.941,348.632,131.42,346.099"/>
	<path fill="#E9E74A" d="M209.418,348.09c0.062-0.158,0.2-0.83-0.855-2.908c-0.749-1.48-1.855-3.199-2.831-4.717
		c-1.796-2.803-2.664-4.188-2.581-5.139c0.089-0.902,1.146-2.215,3.91-5.471c1.316-1.548,2.815-3.3,3.93-4.825
		c1.593-2.176,1.77-2.996,1.77-3.251c0-0.111-0.1-0.715-1.927-2.154c-1.32-1.028-3.097-2.166-4.825-3.267
		c-3.773-2.413-6.109-3.978-6.665-5.417c-0.507-1.301-0.114-3.547,0.57-7.118c0.719-3.746,1.704-8.872,0.265-10.549
		c-0.295-0.346-1.246-0.902-4.333-0.816c-2.272,0.065-5.016,0.454-7.446,0.793c-4.111,0.59-6.3,0.859-7.348,0.306
		c-1.047-0.573-2.041-2.558-3.861-6.314c-1.783-3.688-4.474-9.266-6.486-9.793c3.006,2.13,5.353,19.158,11.065,18.842
		c6.387-0.356,15.054-1.521,15.698-0.636c0.658,0.881-2.321,14.212-1.648,16.499c0.678,2.288,12.014,8.368,12.43,9.765
		c0.398,1.395-9.011,10.49-8.867,13.04c0.152,2.682,7.936,10.928,8.668,14.239C208.754,348.838,209.265,348.469,209.418,348.09"/>
	<path fill="#E9E74A" d="M194.945,367.93c1.055-0.038,1.274-0.229,1.279-0.236c1.003-1.218,0.029-5.265-0.615-7.948
		c-0.727-2.993-1.077-4.593-0.555-5.549C191.335,355.032,194.357,363.919,194.945,367.93"/>
	<path fill="#E9E74A" d="M154.148,287.928c-0.635,0.1-1.613-0.265-5.224-1.729c-3.652-1.49-11.282-4.585-12.939-3.617
		c-0.11,0.068-0.43,0.365-0.81,1.588C138.773,283.807,151.121,291.256,154.148,287.928"/>
	<path fill="#EF9C20" d="M128.255,316.251c-4.297,0.697-4.059-2.404-2.946-4.034c0.244-0.349-0.233-1.19-0.625-1.803
		c-1.139-1.76-2.535-5.273-2.573-7.198c-2.202,0.406-4.187,1.099-5.019,2.512c-0.73,1.261,0.31,4.613,2.805,8.973
		c1.889,3.284,4.2,6.491,5.587,8.195c0.046-0.081,0.095-0.155,0.141-0.231c0.329-0.525,0.712-1.018,1.112-1.478
		c-3.237-1.989-2.076-5.381-1.719-5.312c0.377,0.067,0.158,3.452,2.736,4.308c0.912-0.788,1.947-1.438,3.09-1.915
		c1.278-0.542,2.654-0.862,4.062-0.953c-0.078-0.484-0.091-0.931-0.062-1.344C131.955,315.74,128.961,316.142,128.255,316.251"/>
	<path fill="#E9E74A" d="M172.212,360.816c2.235-1.113,5.542-0.024,6.546,3.017c0.521-2.173-0.369-3.872-1.532-4.745
		c-2.563-1.906-5.687,0-5.971-0.394c-0.031-0.032-0.031-0.103,0.005-0.176c-0.026,0.01-0.06,0.015-0.079,0.023
		C169.395,359.97,169.935,361.942,172.212,360.816"/>
	<path fill="#E9E74A" d="M168.74,373.821v-0.057c0-2.125,0.865-4.546,1.256-5.438c-0.255-0.248-0.463-0.514-0.635-0.783
		c-0.877,1.175-2.244,3.886-2.244,7.177C167.662,374.45,168.206,374.151,168.74,373.821"/>
	<path fill="#3F5CAA" d="M53.777,233.752c-11.636-9.01-2.951-24.476-2.951-24.476c-12.15-9.254-5.477-23.158-5.477-23.158
		c-11.426-11.822-1.184-25.779-1.184-25.779c-11.669-11.057-3.214-25.24-3.214-25.24c-10.893-10.294-6.04-26.21-6.04-26.21
		c-13.135-6.431-7.772-22.607-7.772-22.607c-13.63-5.662-12.585-20.235-12.585-20.235c-11.454-12.845,0.635-23.509,0.635-23.509
		c-9.939-14.403,5.74-22.519,5.74-22.519c-6.784,1.879-11.167,5.197-13.025,9.862c-1.713,4.322-1.026,8.996-0.364,12.136
		c0.059,0.288-0.026,0.589-0.24,0.8c-4.027,4.024-5.981,8.719-5.671,13.572c0.353,5.346,3.306,9.418,5.731,11.28
		c0.256,0.201,0.39,0.532,0.324,0.853c-1.655,9.419,2.074,17.693,9.522,21.073c0.367,0.168,0.57,0.574,0.492,0.975
		c-1.049,5.169-0.907,9.332,0.434,12.729c1.325,3.357,3.849,5.995,7.698,8.055c0.401,0.221,0.572,0.707,0.392,1.123
		c-1.833,4.247-2.295,8.685-1.39,13.189c0.803,4.053,2.725,8.032,5.56,11.514c0.174,0.217,0.231,0.513,0.156,0.785
		c-2.709,9.917-1.534,18.302,3.411,24.231c0.208,0.256,0.26,0.615,0.124,0.917c-2.003,4.479-2.762,8.883-2.256,13.092
		c0.473,3.878,2.039,7.43,4.546,10.286c0.2,0.229,0.265,0.544,0.182,0.833c-1.743,5.833-2.068,10.266-0.993,13.963
		c0.993,3.457,3.156,6.168,5.682,9.092c0.229,0.272,0.277,0.664,0.114,0.984c-2.886,5.524-3.786,10.748-2.659,15.531
		c0.812,3.439,2.659,6.678,5.511,9.62c0.241,0.245,0.315,0.604,0.186,0.924c-2.206,5.729-2.667,10.145-1.433,13.894
		c1.208,3.663,3.963,6.355,6.756,8.723c0.182,0.15,0.296,0.367,0.311,0.601c0.511,6.563,2.598,11.376,6.219,14.303
		c3.898,3.161,8.588,3.31,10.875,3.152c-0.191-1.117-0.392-2.18-0.587-3.166c-1.077-5.216-2.423-9.543-3.189-11.56
		c-0.993,0.296-2.166,0.349-3.515,0.028c-2.201-0.532-4.459-1.904-6.159-3.939c-1.776-2.134-2.789-4.698-2.855-7.229
		c-0.105-4.414,1.68-7.282,3.911-8.877C52.402,239.363,53.777,233.752,53.777,233.752"/>
	<path fill="#3F5CAA" d="M124.66,188.473c0,0-10.462,4.765-19.2-2.569c0,0-6.269,9.108-19.553,5.4c0,0-4.632,7.224-13.293,10.514
		c6.297-1.778,10.199-4.712,13.82-8.461c0.196-0.199,0.48-0.3,0.752-0.263c11.497,1.595,16.392-2.401,17.967-4.196
		c0.287-0.33,0.778-0.396,1.142-0.155c8.755,5.837,16.597,2.411,18.96,1.75c0.229-0.072,0.473-0.038,0.679,0.086
		c3.142,1.857,6.238,2.436,8.943,2.499c0.055-0.007,0.114-0.007,0.171-0.012C132.474,192.69,128.574,191.597,124.66,188.473"/>
	<path fill="#78C0EA" d="M150.252,192.996c-0.281-0.255-0.357-0.666-0.2-1.017c1.991-4.319,2.884-9.104,2.515-13.465
		c-0.371-4.415-2.042-7.986-4.688-10.072c-0.357-0.285-0.443-0.798-0.195-1.18c2.643-3.948,4.147-8.879,4.147-13.527
		c0-4.569-1.454-8.499-3.999-10.791c-0.287-0.261-0.377-0.692-0.201-1.041c2.211-4.412,2.918-8.838,2.061-12.792
		c-0.785-3.596-2.811-6.455-5.705-8.074c-0.406-0.224-0.562-0.72-0.366-1.136c2.201-4.735,2.722-9.479,1.509-13.701
		c-1.043-3.604-3.342-6.649-6.3-8.337c-0.375-0.214-0.534-0.676-0.38-1.082c2.674-6.805-0.621-15.552-5.24-18.535
		c-0.26-0.175-0.418-0.479-0.398-0.79c0.301-4.777-0.349-8.852-1.951-12.109c-1.821-3.713-4.848-6.272-9.021-7.595
		c-0.428-0.141-0.681-0.568-0.598-1.007c2.183-11.064-2.539-19.193-12.971-22.299c-0.319-0.097-0.554-0.356-0.618-0.681
		c-1.169-6.312-2.566-10.176-4.677-12.911c-2.299-2.981-5.674-4.744-10.614-5.551c-0.346-0.056-0.628-0.315-0.709-0.654
		c-1.227-4.951-3.55-8.341-6.909-10.079C79.38,1.793,72.604,3.918,69.933,4.959c-0.21,0.086-0.461,0.081-0.671-0.017
		c-6.618-2.954-12.185-3.844-17.018-2.717c-3.777,0.881-7,2.946-10.142,6.503c4.601-1.866,18.192-7.214,27.119,0.85
		c0,0,13.675-7.883,20.544,6.566c0,0,16.43,4.841,14.117,20.209c0,0,18.196,3.283,13.143,22.517c0,0,15.643,3.581,11.827,20.507
		c0,0,8.745,4.204,5.138,17.54c0,0,13.704,10.766,5.729,22.897c0,0,11.123,9.018,3.141,20.387c0,0,10.669,12.604,0.169,26.308
		c0,0,11.181,12.591,2.693,24.99c0,0,10.609,9.424,3.155,18.742c0.555,0.604,1.117,1.317,1.657,2.127
		C155.926,205.816,154.816,197.168,150.252,192.996"/>
	<path fill="#B5D9D9" d="M131.717,205.393c-6.238,0.525-11.832,3.571-15.438,8.376c0.264,0.34,0.517,0.686,0.755,1.037
		C120.868,210.341,126.197,207.144,131.717,205.393"/>
	<path fill="#B5D9D9" d="M119.612,232.906c1.862,0.698,6.632,0.654,11.147,0.219c-3.827-0.005-8.347-0.542-10.863-1.082
		C119.809,232.339,119.718,232.62,119.612,232.906"/>
	<path fill="#B5D9D9" d="M85.196,239.278c-2.572-2.468-5.621-6.746-5.621-13.099c0-5.848,2.849-11.918,8.005-15.948
		c-6.329,3.934-9.879,10.738-9.879,17.266c0,6.346,3.051,10.624,5.618,13.095c3.91,3.772,9.464,5.997,14.492,5.807
		c5.328-0.193,10.043-1.839,13.785-4.777c-3.395,2.113-7.439,3.3-11.913,3.464C94.659,245.276,89.109,243.049,85.196,239.278"/>
	<path fill="#EF9C20" d="M128.326,419.378c-7.359,2.803-10.641-2.254-15.734-1.785c-64.234,5.845-78.506-4.871-73.75-42.754
		c4.092-32.646,27.27-58.466,33.438-64.823c-1.542-0.878-2.73-2.273-3.382-3.958c-0.647,0.182-1.318,0.274-2.003,0.274
		c-1.094,0-2.13-0.238-3.061-0.671c-2.717,3.232-15.485,18.958-24.752,39.249c-4.837,10.606-7.922,20.723-9.151,30.082
		c-1.479,11.264-0.281,21.505,3.555,30.45c1.934,4.501,6.002,8.206,12.08,11.014c5.41,2.492,12.403,4.288,20.788,5.319
		c13.391,1.657,30.563,1.303,45.939-0.946c1.217-0.182,2.519,0.28,4.013,0.817c2.841,0.999,6.724,2.373,12.548,0.258
		c0.163-0.054,0.34-0.069,0.512-0.024c3.084,0.771,5.338,3.763,7.334,6.389c2.826,3.729,4.264,5.22,6.197,3.863
		C138.891,430.503,134.974,416.848,128.326,419.378"/>
	<path fill="#EF9C20" d="M78.859,338.45c-0.812,1.069-1.638,2.181-2.414,3.27c0.595,0.221,1.335,0.447,2.187,0.688
		C78.444,341.129,78.398,340.128,78.859,338.45"/>
	<path fill="#EF9C20" d="M99.028,404.332c2.827,1.485,5.291-0.53,5.291-0.53s2.005,1.629,5.035-0.782
		c0.795,0.162,2.257-0.148,2.875-1.462c-1.213,0.812-2.271,0.693-3.072,0.316c-1.586,1.017-3.267,1.143-4.666,0.396
		c-1.303,1.262-3.41,1.901-5.302,0.01c-0.686-0.694-0.876-1.995-0.552-3.431c-0.58-0.05-1.151-0.102-1.733-0.16
		C96.746,400.508,96.942,403.244,99.028,404.332"/>
	<path fill="#EF9C20" d="M140.025,408.501c0.415-0.739,0.983-1.446,1.651-2.071c-0.138,0.019-0.278,0.037-0.413,0.061
		c-1.916,0.28-4.56,0.654-5.066-2.625c-0.126-0.817,0.031-1.596,0.447-2.29c-0.496-0.217-1.263-0.501-2.295-0.81
		C133.951,402.752,133.941,406.954,140.025,408.501"/>
	<path fill="#EF9C20" d="M124.578,341.553c0.205-0.114,0.41-0.225,0.606-0.346h0.005c0.34-1.578,0.466-3.144,0.507-4.72
		c-0.903-1.261-1.542-2.632-1.882-4.087c-0.6-2.518-0.299-5.277,0.803-7.819c-1.381-1.583-4.059-5.194-6.246-9.013
		c-0.557-0.974-1.041-1.893-1.456-2.74c-0.323,0.114-0.649,0.209-0.998,0.277c0.73,6.061,6.075,14.417,6.075,14.417
		C119.83,333.196,122.745,338.943,124.578,341.553"/>
	<path fill="#EF9C20" d="M145.826,430.253c0.783,0.351,1.781,0.289,2.586-0.17c1.168-0.691,1.752-2.139,1.64-4.082
		c-0.042-0.893-0.331-2.11-0.863-3.493c0.759,4.558-1.548,5.972-3.353,5.976c0.005,0.02,0.01,0.043,0.01,0.062
		C145.908,429.149,145.896,429.721,145.826,430.253"/>
	<path fill="#EF9C20" d="M153.013,418.984c-0.64,2.891-1.542,3.206-2.077,3.183c0.22,0.583,0.396,1.154,0.535,1.706
		C152.527,422.82,153.322,421.34,153.013,418.984"/>
	<path fill="#EF9C20" d="M109.805,399.534c-0.405-0.344-0.863-1.084-0.852-1.986c0.004-0.191,0.025-0.396,0.08-0.616
		c-0.188,0.449-0.255,0.851-0.265,1.193c-0.014,0.912,0.425,1.677,0.851,1.986c1.91,1.419,4.5-3.222,5.932-4.354
		C113.602,397.084,110.951,400.503,109.805,399.534"/>
	<path fill="#EF9C20" d="M100.518,400.376c-0.124-0.121-0.21-0.498-0.191-1.028c-0.167,0.868-0.055,1.523,0.11,1.69
		c0.845,0.85,1.776,0.955,2.707,0.101c-0.095-0.128-0.186-0.254-0.258-0.397C102.073,401.293,101.263,401.12,100.518,400.376"/>
	<path fill="#EF9C20" d="M104.863,399.668c-0.668-0.74-0.458-1.92,0-2.855c-0.055,0.085-0.105,0.172-0.153,0.258
		c-0.525,0.96-0.836,2.272-0.11,3.07c0.822,0.916,1.963,1.089,3.154,0.516c-0.076-0.096-0.131-0.195-0.19-0.297
		C106.549,400.697,105.593,400.466,104.863,399.668"/>
	<path fill="#EF9C20" d="M158.986,306.826c-2.459,1.628-4.139,0.733-4.779,0.235c-0.531-0.407-0.946-0.966-1.223-1.604
		c-3.24,1.345-5.756,1.825-7.459,0.133c-1.518-1.519-0.759-4.854-0.373-6.213c0.521-1.797,1.391-3.672,2.457-4.956
		c-3.841,3.228-6.295,10.051-3.466,12.28c3.487,2.75,7.923,0.511,7.923,0.511s1.958,2.521,5.64,1.438c0,0,2.237,3.247,5.171,3.877
		c1.013,0.216,2.457-0.916,3.328-1.766c-0.311,0.234-0.631,0.417-0.95,0.539C163.016,312.152,160.355,309.553,158.986,306.826"/>
	<path fill="#EF9C20" d="M174.719,366.26c2.289-0.445,2.941-2.188,2.363-3.55c-0.448-0.017-1.203-0.187-1.803-0.253
		C176.386,364.276,175.512,365.633,174.719,366.26"/>
	<path fill="#B5D9D9" d="M126.148,331.455c-0.663-2.798-0.057-5.945,1.624-8.638c0.645-1.011,1.456-1.892,2.407-2.605
		c-1.361,0.8-2.498,1.894-3.331,3.224c-1.692,2.69-2.284,5.844-1.626,8.635c0.641,2.708,2.373,5.033,5.162,6.904
		c0.147-0.33,0.312-0.63,0.498-0.921C128.342,336.234,126.751,334.019,126.148,331.455"/>
	<path fill="#B5D9D9" d="M151.094,344.056c-2.402-2.436-3.73-5.688-3.73-9.163c0-3.571,1.736-7.215,4.866-9.524
		c-3.717,2.238-5.802,6.235-5.802,10.149c0,3.467,1.338,6.723,3.739,9.158c2.418,2.44,5.663,3.793,9.146,3.793
		c2.961,0,5.656-0.934,7.816-2.514c-1.983,1.201-4.338,1.892-6.883,1.892C156.764,347.847,153.514,346.5,151.094,344.056"/>
	<path fill="#E9E74A" d="M154.65,407.939c0-1.334-0.344-2.876-1.494-4.284c-1.299-1.587-3.553-2.693-6.372-3.118
		c-2.519-0.382-5.195-0.129-6.962,0.663c-0.893,0.392-1.891,1.069-1.91,2.11c0.365-0.53,1.005-0.917,1.595-1.179
		c1.769-0.795,4.448-1.046,6.964-0.669c2.82,0.43,5.081,1.537,6.375,3.116c1.146,1.41,1.494,2.952,1.494,4.292
		c0,0.598-0.071,1.158-0.158,1.646c-0.055,0.253-0.113,0.496-0.19,0.744c0.206-0.516,0.377-1.072,0.495-1.676
		C154.578,409.099,154.65,408.54,154.65,407.939"/>
	<path fill="#EF9C20" d="M153.441,446.509c-3.957-0.482-6.912-1.905-8.405-3.075c-1.031-0.813-1.492-1.553-1.502-1.967
		c-0.263,0.263-0.446,0.597-0.501,1.002c-0.053,0.396,0.389,1.18,1.494,2.054c1.494,1.17,4.445,2.598,8.408,3.074
		c5.888,0.717,11.338-0.978,13.045-1.25C160.686,446.915,160.461,447.363,153.441,446.509"/>
	<path fill="#EF9C20" d="M157.348,440.568c-3.108-0.272-5.87-1.32-7.379-2.802c-0.447-0.444-1.104-1.254-1.058-2.153
		c-0.165,0.119-0.282,0.274-0.366,0.475c-0.486,1.142,0.366,2.227,0.92,2.769c1.506,1.483,4.26,2.526,7.372,2.796
		c6.38,0.557,12.088-2.066,13.351-2.033C167.079,439.646,164.391,441.176,157.348,440.568"/>
	<path fill="#EF9C20" d="M169.051,447.941c-5.409,2.272-11.236,3.241-16.406,2.735c-4.861-0.463-8.594-2.205-10.506-4.821
		c-0.33,0.138-0.643,0.271-0.949,0.4c1.725,3.003,5.668,4.994,10.944,5.51c5.171,0.506,10.997-0.467,16.407-2.735
		c6.111-2.564,11.311-6.618,15.052-11.737c1.724-2.354,3.13-4.77,4.228-7.22c-1.01,2.08-2.258,4.126-3.717,6.136
		C180.363,441.318,175.158,445.377,169.051,447.941"/>
	<path fill="#C52126" d="M75.565,752.891c0-0.196,0.005-0.396,0.01-0.593c0.066-2.487,0.537-3.003,0.616-3.069
		c0.659,0.156,2.786,2.655,4.3,4.508c-1.411,0.243-3.553,0.61-4.875,0.787C75.596,754.074,75.565,753.506,75.565,752.891"/>
	<path fill="#C52126" d="M142.699,750.245c-0.125-1.814-0.064-4.35,0.826-4.283c0.41,0.085,1.518,0.97,2.77,2.049
		C145.426,748.536,143.897,749.457,142.699,750.245"/>
	<path fill="#B5D9D9" d="M40.522,382.688c-0.253-0.523-0.497-0.988-0.721-1.385c1.313-0.119,2.149-0.104,2.548-0.029
		C42.155,381.609,41.43,382.187,40.522,382.688"/>
	<path fill="#B5D9D9" d="M40.689,383.229c-0.258-0.529-0.728-1.648-0.947-2.045c1.836-0.124,2.22-0.124,2.61,0.243
		C42.733,381.953,41.592,382.727,40.689,383.229"/>
</g>
</svg>
