<?xml version="1.0" encoding="utf-8"?><!-- Generator: Adobe Illustrator 16.0.4, SVG Export Plug-In . SVG Version: 6.00 Build 0)  --><!DOCTYPE svg PUBLIC "-//W3C//DTD SVG 1.1//EN" "http://www.w3.org/Graphics/SVG/1.1/DTD/svg11.dtd">
<svg
	height="367px"
	version="1.1"
	viewBox="0 0 130.698 366.289"
	 width="131px"
	xmlns="http://www.w3.org/2000/svg"
	 xml:space="preserve">
<g>
	<path d="M126.025,105.455c-2.426-5.273-5.391-11.687-7.097-17.277c1.737-3.062,2.515-6.676,2.151-10.369
		c-0.593-5.892-3.99-11.018-9.366-14.193c2.271-5.13-1.122-7.508-3.188-8.962c-0.623-0.43-1.207-0.841-1.433-1.171
		c-2.503-3.587-12.832-36.687-14.13-41.259C91.555,7.26,90.247,0.408,88.137,0.029c-1.752-0.312-2.77,1.962-3.765,4.161
		C83.998,5.042,83.38,6.417,83,6.765c-0.674-0.275-2.4-2.215-3.346-3.279c-2.16-2.442-3.246-3.604-4.311-3.378
		c-1.169,0.246-1.621,1.96-2.239,4.348c-0.292,1.112-0.829,3.155-1.247,3.576c-0.531-0.124-1.926-1.462-2.772-2.273
		c-2.069-1.991-4.212-4.044-6.194-3.662c-1.471,0.292-1.77,2.313-2.08,4.455c-0.125,0.888-0.392,2.693-0.744,3.049
		c-0.602-0.12-2.271-1.788-3.186-2.7c-2.195-2.194-3.607-3.531-4.93-3.29c-1.57,0.294-1.996,2.614-2.445,5.066
		c-0.186,1.017-0.521,2.855-0.878,3.284c-0.614-0.117-2.306-1.508-3.341-2.344c-2.57-2.105-4.211-3.377-5.541-2.862
		c-1.176,0.45-1.195,2.332-1.223,4.934c-0.009,0.979-0.029,2.526-0.193,3.19c-0.65-0.258-2.002-1.139-2.941-1.749
		c-2.941-1.916-5.486-3.575-6.944-2.468c-0.756,0.576-1,1.646-1,2.928c0,0.88,0.679,5.789,0.631,6.274
		c-0.865,0.333-2.927-0.449-4.444-0.989c-2.254-0.797-4.031-1.435-5.049-0.623c-0.533,0.428-0.721,1.121-0.721,1.984
		c0,0.931,0.209,2.056,0.436,3.271c0.127,0.688,0.555,3.111,0.343,3.544c-0.578,0.141-2.624-0.566-3.868-0.992
		c-2.65-0.911-4.943-1.701-6.076-0.685c-1.307,1.188-0.437,3.875,0.172,6.198c0.252,0.982,0.623,2.393,0.635,3.027
		c-0.604-0.02-1.881-0.335-2.775-0.56c-2.691-0.663-5.232-1.293-6.303-0.038c-0.822,0.953-0.467,2.612,1.259,5.912
		c1.329,2.516,5.837,9.785,6.786,11.302c4.001,6.412,25.285,55.535,29.327,67.314c-1.729,1.262-3.638,3.899-3.289,9.359
		c0.145,2.229,1.685,4.789,3.929,6.518c1.883,1.447,4.018,2.18,6.153,2.14c-1.388,2.96-2.155,6.567-1.651,10.02
		c0.432,2.905,1.687,5.443,3.732,7.539c1.248,1.278,2.723,2.272,4.178,3.02c-0.22,0.535-0.442,1.108-0.625,1.648
		c-2.631,0.597-4.012,3.418-5.228,5.93c-0.521,1.079-1.021,2.102-1.562,2.851c-0.442,0.01-0.89,0.034-1.329,0.081
		c-3.785,0.421-7.834,3.438-11.405,8.497c-3.08,4.376-5.513,9.921-6.845,15.626c-1.494,6.374-1.589,12.713-0.262,18.325
		c0.668,2.817,4.367,3.427,6.798,3.34c0.241,1.422,0.519,2.964,0.84,4.606c-3.966,3.241-7.298,6.751-9.904,10.433
		c-2.3,3.246-3.968,6.554-4.955,9.829c-1.226,4.023-1.433,8.045-0.623,11.945c0.067,0.328,0.317,0.59,0.647,0.668
		c0.288,0.07,0.697,0.162,1.197,0.258c0.221,5.41,4.018,11.555,7.076,16.51c1.588,2.561,3.214,5.211,3.233,6.229
		c0.025,1.092-0.203,2.707-0.442,4.422c-0.607,4.391-0.912,7.131,0.535,8.072c2.164,1.42,9.566,3.648,16.85,5.08
		c0.299,3.715-0.979,15.926-3.045,29.064c-4.279-0.139-5.752,2.471-6.184,3.615c-0.719,1.9-0.389,4.166,0.704,5.609
		c-1.577,1.609-3.939,4.92-6.039,9.021c-2.007,3.943-4.366,9.754-4.136,15.049c0.009,0.201,0.083,0.396,0.217,0.541
		c4.149,4.723,14.57,9.014,26.564,10.922c5.887,0.947,11.659,1.221,16.656,0.795c5.652-0.469,10.12-1.781,13.289-3.896
		c0.164-0.105,0.291-0.27,0.35-0.453c0.328-0.984,0.537-2.402,0.516-4.131c7.279,1.674,14.776,2.084,21.739,1.189
		c5.972-0.768,10.36-2.336,12.304-3.443c0.25-0.146,0.415-0.404,0.44-0.691c0.618-7.238-3.042-13.848-6.21-18.121
		c-3.215-4.338-7.082-7.814-9.594-9.332c0.548-0.871,0.814-1.975,0.729-3.176c-0.187-2.57-1.806-4.939-4.188-6.166
		c1.116-7.797,2.382-23.621,1.72-29.318c2.078-0.41,4.122-0.975,5.822-1.758c0.227-0.104,0.395-0.305,0.471-0.537
		c0.609-1.988,0.961-6.893,1.318-9.293c2.232-1.834,5.543-5.764,8.202-10.744c2.069-3.863,4.425-9.678,3.734-15.145
		c0.318-0.07,0.567-0.131,0.737-0.188c0.329-0.104,0.566-0.393,0.598-0.744c0.432-4.055-0.129-11.737-5.76-22.91l-0.336-0.659
		c0.17-9.425-1.084-18.963-2.263-24.749c1.228-0.639,2.448-1.799,2.675-3.044c0.504-2.791-1.395-8.634-4.633-14.201
		c-2.227-3.843-6.901-10.662-13.32-13.522c-0.854-3.142-2.141-5.498-3.83-7.015c-0.219-0.19-0.5-0.268-0.771-0.205
		c-0.48-3.598,5.301-6.432,6.424-8.861c1.717-3.683-0.557-7.373-3.067-7.781c1.685-4.097,4.1-10.294,4.594-11.567
		c3.599-1.06,7.063-2.274,10.371-3.647c10.521-4.369,18.527-10.061,19.021-13.526C130.961,116.322,129.188,112.335,126.025,105.455
		 M76.776,293.175c-0.104,4.732-0.356,16.545-1.366,23.297c-3.109,0.066-5.308,1.521-5.9,3.928
		c-0.539,2.221,0.395,4.686,2.226,6.146c-0.651,0.744-1.428,1.795-2.075,2.961c0.498-2.828-0.891-6.492-3.945-7.803
		c1.229-7.01,2.508-22.131,2.791-28.477c1.426-0.078,2.744-0.191,3.976-0.355c1.864-0.242,3.284-0.566,4.319-0.91
		C76.791,292.3,76.781,292.707,76.776,293.175" fill="#B5D9D9"/>
	<path d="M58.949,281.783c-0.098,4.73-0.354,16.541-1.369,23.291c-3.106,0.066-5.305,1.523-5.893,3.93
		c-0.541,2.221,0.398,4.689,2.227,6.15c-0.66,0.74-1.434,1.789-2.074,2.949c0.496-2.828-0.895-6.482-3.947-7.797
		c1.225-7.008,2.508-22.129,2.787-28.477c1.428-0.072,2.748-0.191,3.973-0.354c1.865-0.248,3.289-0.562,4.327-0.906
		C58.969,280.914,58.959,281.314,58.949,281.783" fill="#B5D9D9"/>
	<path d="M126.023,105.458c-2.422-5.276-5.389-11.687-7.094-17.283c1.738-3.059,2.516-6.673,2.151-10.368
		c-0.595-5.882-3.991-11.016-9.366-14.191c2.269-5.128-1.121-7.513-3.188-8.957c-0.624-0.439-1.207-0.851-1.434-1.176
		c-2.503-3.587-12.832-36.687-14.13-41.259c-1.408-4.965-2.72-11.815-4.825-12.189c-1.757-0.314-2.773,1.959-3.766,4.159
		C83.999,5.039,83.381,6.413,83,6.765c-0.676-0.278-2.398-2.215-3.348-3.279c-2.156-2.435-3.246-3.605-4.307-3.38
		c-1.172,0.248-1.622,1.962-2.24,4.35c-0.291,1.115-0.828,3.153-1.248,3.573c-0.529-0.121-1.926-1.463-2.773-2.275
		c-2.068-1.983-4.213-4.039-6.192-3.649c-1.475,0.284-1.767,2.308-2.083,4.447c-0.122,0.888-0.391,2.695-0.74,3.051
		c-0.602-0.119-2.271-1.787-3.187-2.7c-2.198-2.193-3.61-3.535-4.933-3.292c-1.566,0.296-1.992,2.617-2.441,5.066
		c-0.189,1.017-0.524,2.855-0.879,3.284c-0.613-0.114-2.305-1.503-3.336-2.344c-2.575-2.105-4.216-3.372-5.548-2.859
		c-1.173,0.452-1.194,2.329-1.222,4.934c-0.01,0.977-0.031,2.525-0.191,3.188c-0.653-0.258-2.002-1.139-2.941-1.749
		c-2.943-1.923-5.487-3.575-6.945-2.468c-0.758,0.579-1,1.646-1,2.928c0,0.883,0.676,5.791,0.631,6.274
		c-0.867,0.333-2.93-0.447-4.447-0.989c-2.254-0.802-4.029-1.432-5.046-0.62c-0.534,0.425-0.722,1.118-0.722,1.986
		c0,0.926,0.211,2.051,0.437,3.266c0.124,0.688,0.553,3.113,0.339,3.546c-0.574,0.136-2.62-0.568-3.867-0.998
		c-2.65-0.912-4.943-1.702-6.072-0.681c-1.308,1.188-0.433,3.872,0.172,6.198c0.248,0.98,0.62,2.393,0.635,3.032
		c-0.604-0.024-1.883-0.345-2.777-0.564c-2.693-0.661-5.234-1.293-6.305-0.046c-0.821,0.963-0.467,2.62,1.261,5.912
		c1.329,2.523,5.839,9.791,6.785,11.308c4.009,6.414,25.288,55.537,29.325,67.319c-1.727,1.259-3.635,3.892-3.285,9.356
		c0.143,2.229,1.686,4.792,3.93,6.522c1.882,1.444,4.017,2.175,6.152,2.14c-1.391,2.955-2.155,6.562-1.652,10.015
		c0.434,2.905,1.686,5.445,3.73,7.539c1.252,1.283,2.724,2.275,4.179,3.02c-0.222,0.535-0.438,1.104-0.626,1.65
		c-2.629,0.595-4.01,3.421-5.225,5.925c-0.521,1.077-1.021,2.104-1.562,2.854c-0.445,0.008-0.889,0.034-1.33,0.086
		c-3.786,0.418-7.832,3.433-11.399,8.494c-3.087,4.372-5.517,9.919-6.853,15.619c-1.492,6.379-1.586,12.721-0.258,18.33
		c0.664,2.814,4.369,3.427,6.797,3.343c0.24,1.419,0.52,2.965,0.84,4.604c-3.965,3.246-7.301,6.751-9.904,10.435
		c-2.3,3.244-3.968,6.555-4.955,9.829c-1.225,4.021-1.433,8.045-0.623,11.943c0.068,0.328,0.317,0.586,0.645,0.668
		c0.291,0.07,0.699,0.162,1.201,0.258c0.217,5.414,4.014,11.551,7.072,16.51c1.592,2.564,3.217,5.211,3.234,6.229
		c0.025,1.092-0.203,2.707-0.439,4.42c-0.609,4.389-0.912,7.133,0.531,8.07c2.165,1.424,9.569,3.658,16.852,5.084
		c0.297,3.719-0.977,15.93-3.043,29.064c-4.281-0.139-5.75,2.467-6.185,3.615c-0.719,1.9-0.389,4.168,0.704,5.611
		c-1.579,1.604-3.941,4.918-6.039,9.014c-2.006,3.949-4.361,9.76-4.137,15.055c0.01,0.201,0.083,0.393,0.218,0.541
		c4.148,4.723,14.568,9.014,26.565,10.924c5.886,0.945,11.654,1.219,16.653,0.801c5.653-0.48,10.122-1.789,13.296-3.904
		c0.156-0.105,0.285-0.262,0.342-0.453c0.328-0.988,0.541-2.402,0.516-4.131c7.281,1.676,14.777,2.088,21.741,1.189
		c5.971-0.773,10.358-2.336,12.304-3.447c0.25-0.143,0.416-0.4,0.441-0.688c0.618-7.234-3.042-13.85-6.21-18.123
		c-3.218-4.334-7.085-7.811-9.593-9.328c0.547-0.873,0.813-1.977,0.733-3.174c-0.19-2.578-1.812-4.947-4.193-6.176
		c1.117-7.797,2.382-23.615,1.722-29.312c2.078-0.406,4.119-0.969,5.82-1.758c0.228-0.109,0.396-0.299,0.47-0.539
		c0.608-1.986,0.964-6.891,1.317-9.291c2.232-1.834,5.545-5.764,8.205-10.744c2.068-3.863,4.422-9.684,3.734-15.143
		c0.318-0.068,0.565-0.135,0.736-0.191c0.33-0.104,0.565-0.398,0.599-0.736c0.431-4.061-0.132-11.747-5.762-22.921l-0.335-0.654
		c0.17-9.425-1.086-18.96-2.262-24.747c1.228-0.645,2.447-1.801,2.676-3.051c0.502-2.784-1.396-8.633-4.635-14.198
		c-2.227-3.837-6.9-10.66-13.32-13.517c-0.855-3.146-2.139-5.495-3.828-7.019c-0.219-0.19-0.504-0.265-0.774-0.2
		c-0.478-3.6,5.3-6.437,6.427-8.866c1.714-3.688-0.557-7.373-3.07-7.784c1.688-4.094,4.102-10.294,4.594-11.564
		c3.602-1.06,7.065-2.276,10.369-3.647c10.525-4.369,18.529-10.061,19.025-13.531C130.963,116.322,129.189,112.335,126.023,105.458
		 M75.41,316.472c-3.109,0.066-5.309,1.521-5.898,3.928c-0.542,2.221,0.394,4.686,2.225,6.15c-0.652,0.74-1.43,1.791-2.078,2.957
		c0.502-2.83-0.889-6.494-3.945-7.803c1.23-7.01,2.51-22.131,2.795-28.477c1.424-0.078,2.746-0.191,3.975-0.354
		c1.862-0.25,3.285-0.574,4.316-0.908c-0.01,0.334-0.017,0.746-0.021,1.209C76.672,297.908,76.418,309.714,75.41,316.472" fill="#010101"/>
	<path d="M119.635,77.949c0.497,4.914-1.222,9.664-4.618,12.936c-0.112-0.225-0.237-0.441-0.376-0.656
		c-1.74-2.7-4.922-4.19-8.495-3.97c-3.319,0.199-7.521,1.739-11.226,3.093c-2.655,0.981-5.621,2.066-7.014,2.086
		c0.241-2.539-0.013-5.443-1.226-8.589c-0.833-2.167-1.993-4.157-3.417-5.921c0.004-0.01,0.009-0.019,0.014-0.028
		c1.922-5.847,6.527-10.717,12.322-13.021c5.053-2.011,10.272-1.802,14.699,0.588C115.67,67.374,119.07,72.289,119.635,77.949" fill="#FFFFFF"/>
	<path d="M85.33,83.364c2.299,5.985,0.89,10.985-0.699,14.124c-2.494,4.942-7.206,8.881-12.289,10.27
		c-1.426,0.394-6.531,1.544-12.193-0.153c-5.752-1.729-10.012-5.762-12.672-11.979c-1.967-4.612-1.926-9.71,0.103-14.372
		c2.104-4.827,6.093-8.6,10.94-10.34c4.484-1.607,10.115-1.369,15.059,0.649C79.094,73.814,83.267,78.006,85.33,83.364" fill="#FFFFFF"/>
	<path d="M25.557,192.154c1.288-5.489,3.623-10.82,6.581-15.007c3.228-4.58,6.931-7.409,10.168-7.77
		c3.204-0.349,6.325,0.573,9.269,2.77c2.598,1.938,4.992,4.779,7.107,8.452c2.272,3.943,4.11,8.726,5.044,13.131
		c0.834,3.948,0.716,6.436,0.299,7.619c-4.763-1.369-12.739-1.074-21.606,0.836c-6.09,1.309-13.873,3.769-17.307,6.651
		C24.059,203.695,24.207,197.946,25.557,192.154" fill="#EF3E26"/>
	<path d="M44.58,259.605c-2.086-4.438-4.934-13.516-7.799-24.908c-2.822-11.216-4.982-22.04-5.47-27.343
		c3.091-1.291,7.089-2.509,11.47-3.454c3.758-0.805,7.395-1.315,10.66-1.527c0.858,11.568,5.793,36.273,9.529,45.438
		c-3.264,0.973-7.645,3.719-11.136,6.174C49.359,255.716,46.789,257.722,44.58,259.605" fill="#F4DE12"/>
	<path d="M55.194,202.288c3.033-0.098,5.676,0.098,7.71,0.581c-1.181,1.179-3.195,2.396-7.307,3.447
		C55.424,204.85,55.289,203.499,55.194,202.288" fill="#E22826"/>
	<path d="M25.844,210.556c0.776-0.8,2.083-1.624,3.781-2.445c0.109,1.027,0.271,2.226,0.475,3.557
		C28.638,211.684,26.762,211.4,25.844,210.556" fill="#E22826"/>
	<path d="M22.754,229.478c2.359-3.333,5.34-6.518,8.869-9.494c0.934,4.609,2.117,9.839,3.459,15.144
		c1.701,6.775,3.41,12.761,4.969,17.472c-5.342-0.654-18.897-2.488-22.688-3.273C16.623,245.216,16.764,237.944,22.754,229.478" fill="#EF3E26"/>
	<path d="M46.641,292.769c0-0.348-0.01-0.668-0.02-0.965c1.994,0.361,3.939,0.645,5.741,0.82
		c5.478,0.545,10.29,0.77,14.378,0.664c-0.356,7.994-2.033,26.324-3.26,30.512c-7.502,2.135-17.498,0.092-20.088-2.053
		C45.103,310.994,46.641,298.384,46.641,292.769" fill="#F4DE12"/>
	<path d="M68.641,331.81c0.01-0.002,0.016-0.012,0.021-0.021l-0.006,0.027
		C68.65,331.816,68.645,331.81,68.641,331.81" fill="#FFFFFF"/>
	<path d="M37.258,324.775c0.627-1.652,2.165-2.52,4.361-2.482c0.023,0.086,0.063,0.16,0.11,0.232
		c2.036,2.977,14.042,5.502,22.693,2.832c0.255-0.082,0.464-0.273,0.564-0.525c0.123-0.32,0.247-0.781,0.374-1.342
		c2.784,1.547,3.525,6.275,1.52,7.559c-2.434,1.553-8.02,2.207-14.599,1.709c-6.38-0.486-11.937-1.922-14.167-3.65
		C37.071,328.294,36.676,326.306,37.258,324.775" fill="#FFFFFF"/>
	<path d="M31.852,339.582c2.049-4.01,4.375-7.264,5.8-8.666c3.233,2.068,9.502,3.209,14.497,3.594
		c6.53,0.492,12.038-0.107,15.018-1.613c7,5.24,10.949,11.084,12.983,16.207c0.784,1.986,1.309,3.771,1.619,5.404
		c-4.243,2.402-9.432,3.764-15.419,4.059c-5.142,0.244-10.783-0.301-16.756-1.609c-10.116-2.225-18.579-6.141-21.161-8.26
		C28.963,346.32,29.965,343.271,31.852,339.582" fill="#44C7F3"/>
	<path d="M79.288,343.441c-1.013-1.672-2.269-3.441-3.839-5.254c0.486-1.709,1.455-2.865,2.832-3.357
		c1.557-0.557,3.496-0.176,5.061,1.004c1.436,1.08,1.926,2.988,1.232,4.758C83.791,342.58,81.818,343.64,79.288,343.441" fill="#FFFFFF"/>
	<path d="M81.648,360.892c-5.684,3.613-16.287,4.617-28.451,2.674c-5.566-0.889-10.913-2.316-15.443-4.135
		c-4.496-1.801-7.896-3.869-9.867-5.988c-0.014-0.73,0.03-1.795,0.242-3.17c3.32,2.338,11.414,5.959,21.158,8.098
		c9.27,2.035,22.37,3.244,32.707-2.33C82.177,357.849,82.048,359.449,81.648,360.892" fill="#FFFFFF"/>
	<path d="M116.491,354.05c-3.774,1.916-16.336,5.672-32.856,1.736c-0.135-1.303-0.393-2.73-0.811-4.254
		c8.002,1.785,23.655,3.49,33.503-1.203c0.129,0.889,0.203,1.791,0.203,2.707C116.53,353.371,116.516,353.71,116.491,354.05" fill="#FFFFFF"/>
	<path d="M110.602,337.591c2.113,2.854,4.471,6.812,5.456,11.258c-9.784,4.916-26.102,2.918-33.724,1.08
		c-0.133-0.379-0.276-0.766-0.416-1.156c-0.45-1.156-1.034-2.463-1.792-3.861c3.178-0.092,5.067-1.939,5.788-3.793
		c0.92-2.34,0.221-4.988-1.701-6.432c-1.98-1.498-4.376-1.947-6.42-1.223c-1.564,0.562-2.757,1.781-3.447,3.486
		c-1.223-1.309-2.617-2.639-4.201-3.945c0.41-2.076,2.137-4.492,3.138-5.543c3.604,1.729,8.895,2.914,14.318,3.195
		c5.876,0.311,10.786-0.465,13.472-2.105c0.021-0.016,0.039-0.029,0.064-0.043C103.004,329.533,106.998,332.744,110.602,337.591" fill="#44C7F3"/>
	<path d="M101.393,324.164c0.098,1.299-0.359,2.35-1.236,2.893c-5.026,3.076-19.447,2.303-26.623-1.422
		c-1.736-0.906-2.755-3.021-2.312-4.812c0.376-1.553,1.75-2.455,3.882-2.58c-0.021,0.068-0.03,0.148-0.046,0.221
		c-0.08,0.373,0.093,0.75,0.425,0.941c2.882,1.666,13.56,5.217,22.438,1.957c0.289-0.105,0.5-0.354,0.564-0.648
		c0.058-0.297,0.121-0.623,0.186-0.99C100.406,320.855,101.295,322.683,101.393,324.164" fill="#FFFFFF"/>
	<path d="M99.129,292.88c0,8.029-1.308,21.764-2.271,26.99c-7.615,2.561-16.757-0.148-19.953-1.701
		c1.231-6.527,1.501-19.367,1.622-24.957c0.016-0.975,0.032-1.703,0.051-2.07c0.129-0.102,0.229-0.195,0.302-0.277
		c0.433-0.514,0.758-1.199,1.027-1.965c2.581,0.584,7.16,0.844,11.837,0.646c1.838-0.076,4.483-0.258,7.215-0.684
		C99.073,289.89,99.129,291.271,99.129,292.88" fill="#F4DE12"/>
	<path d="M114.949,265.392c-2.641,4.939-6.006,8.859-8.016,10.406c-0.175,0.135-0.289,0.34-0.324,0.551
		c-0.393,2.354-0.52,6.412-1.213,9.01c-6.543,2.812-20.039,2.953-25.01,1.852c0.219-0.969,0.383-1.955,0.509-2.803
		c0.049-0.309,0.097-0.586,0.14-0.834c10.576-2.932,22.509-12.549,21.502-13.633c-0.196-0.215-7.601,5.672-15.612,9.453
		c-2.976,1.398-5.456,2.283-6.853,2.615c-0.334,0.074-0.589,0.342-0.652,0.666c-0.088,0.383-0.166,0.883-0.26,1.455
		c-0.262,1.678-0.704,4.482-1.612,5.588c-0.257,0.172-5.041,3.152-25.012,1.16c-9.098-0.912-21.133-4.355-23.583-5.955
		c-0.652-1.031-0.205-3.074,0.246-6.359c0.252-1.781,0.488-3.467,0.469-4.701c-0.032-1.496-1.49-3.85-3.502-7.107
		c-2.729-4.418-6.409-10.385-6.791-15.283c5.816,0.969,17.26,2.492,21.295,2.959c0.924,2.664,1.784,4.818,2.538,6.375
		c-3.082,2.752-5.126,5.057-4.568,5.553c0.491,0.436,8.044-6.627,14.198-10.936c5.976-4.186,10.679-6.502,12.586-6.203
		c1.568,0.242,2.857,0.934,3.926,1.783c2.572,2.074,4.4,5.701,5.275,5.004c0.226-0.178,0.027-0.82-0.412-1.652
		c6.508,0.752,18.369-0.094,25.229-0.707c6.723-0.596,13.162-1.359,17.275-1.971c-2.363,4.582-6.188,8.109-5.969,8.408
		c0.23,0.32,4.33-1.58,7.699-8.682c0.018,0,0.033-0.004,0.049-0.004C118.977,255.689,117.305,260.968,114.949,265.392" fill="#44C7F3"/>
	<path d="M101.448,208.005c-0.215-1.534-0.517-5.142-0.823-9.459c1.865-0.558,6.203-0.783,9.915-0.241
		c1.144,3.671,3.021,14.614,3.185,25.09C110.093,217.121,105.675,211.565,101.448,208.005" fill="#F4DE12"/>
	<path d="M114.199,197.353c-4.046-1.355-10.542-1.37-13.71-0.592c-0.086-1.213-0.177-2.465-0.264-3.729
		c-0.536-7.504-1.087-15.27-1.532-18.245c-0.077-0.524-0.165-1.021-0.258-1.508C107.227,178.144,113.912,191.924,114.199,197.353" fill="#EF3E26"/>
	<path d="M96.955,175.044c0.431,2.909,0.982,10.639,1.514,18.111c0.504,6.976,0.975,13.562,1.297,15.457
		c0.035,0.205,0.145,0.392,0.303,0.525c5.855,4.816,12.054,13.665,15.943,22.685c3.696,8.59,4.082,14.405,3.853,17.538
		c-2.465,0.535-10.741,1.666-20.572,2.541c-7.368,0.66-20.575,1.586-26.329,0.496c-0.819-1.107-1.802-2.23-2.686-2.912
		c-1.222-0.951-2.73-1.715-4.588-2.004c-0.287-0.045-0.613-0.055-0.957-0.025c-3.163-7.445-7.258-26.712-8.925-39.384
		c5.999-1.494,8.097-3.434,9.37-5.143c1.603-2.187,0.721-7.42,0.264-9.569c-0.97-4.568-2.871-9.55-5.234-13.642
		c-4.107-7.123-9.266-11.292-14.77-12.042c0.389-0.68,0.752-1.427,1.135-2.207c0.904-1.87,1.843-3.785,3.168-4.611
		c0,0.117,0,0.221,0.021,0.311c0.041,0.201,0.151,0.377,0.303,0.514c2.82,2.271,9.184,5.45,17.853,6.892
		c6.476,1.087,16.091,1.447,25.41-2.827C94.629,167.124,96.186,169.807,96.955,175.044" fill="#EF3E26"/>
	<path d="M93.9,149.958c-1.703,0.546-4.021,1.365-6.484,2.077c1.594-4.131,3.43-11.827,3.903-13.96
		c2.794-0.561,5.53-1.21,8.204-1.95C98.291,139.257,95.096,147.341,93.9,149.958" fill="#FFFFFF"/>
	<path d="M51.859,149.114c-2.266-2.336-2.855-6.883-1.037-8.371c1.895-1.549,6.07-1.003,9.441-0.568
		c0.585,0.082,1.159,0.153,1.701,0.221c-0.129,4.082-0.344,10.598-0.461,12.968C57.621,152.644,54.04,151.357,51.859,149.114" fill="#FFFFFF"/>
	<path d="M63.406,140.519c0.196,0.01,0.379,0.013,0.558,0.021c3.989,0.06,7.967-0.062,11.904-0.355
		c-0.263,2.817-1.382,11.04-1.79,13.94c-3.139,0.098-7.221,0.046-11.143-0.53C63.08,151.014,63.326,143.15,63.406,140.519" fill="#FFFFFF"/>
	<path d="M77.328,140.067c4.213-0.359,8.365-0.924,12.445-1.688c-0.705,3.08-2.662,10.956-4.127,14.141
		c-2.898,0.748-6.292,1.349-10.098,1.549C75.897,151.535,77.088,142.868,77.328,140.067" fill="#FFFFFF"/>
	<path d="M128.924,118.206c-0.113,0.812-1.422,2.616-4.729,5.025c-2.389,1.741-6.608,4.381-13.222,7.126
		c-6.275,2.604-13.162,4.651-20.449,6.083c-8.559,1.691-17.492,2.479-26.54,2.341c-0.931-0.015-2.179-0.172-3.496-0.347
		c-3.698-0.479-8.298-1.077-10.773,0.957c-2.523,2.059-2.29,7.676,0.89,10.944c2.287,2.359,6.074,3.997,11.25,4.865
		c4.746,0.793,9.789,0.793,13.183,0.649c4.39-0.185,8.241-0.873,11.473-1.735c5.72-1.516,10.672-3.723,10.233-4.658
		c-0.072-0.158-0.435-0.148-1.005-0.026c0.066-0.149,0.138-0.314,0.21-0.484c1.855-0.296,3.439,2.655,2.206,5.295
		c-1.031,2.228-7.665,5.425-6.484,10.323c-8.632,3.658-17.442,3.291-23.462,2.282c-7.502-1.25-13.685-3.996-16.688-6.265
		c0.128-0.569,0.516-1.709,0.92-2.724c2.705,1.097,5.012,1.292,5.125,0.817c0.16-0.619-5.854-2.12-9.381-5.541
		c-2.271-2.207-3.188-4.704-3.511-6.824c-0.455-3.137,0.245-6.293,1.431-8.847c1.779-3.849,4.734-5.635,4.324-6.309
		c-0.387-0.646-3.004,1.17-4.735,3.529c-2.103,0.38-4.294-0.211-6.187-1.667c-1.826-1.415-3.138-3.519-3.248-5.237
		c-0.242-3.79,0.685-6.527,2.672-7.908c3.189-2.205,7.467-0.139,7.771-0.821c0.279-0.625-3.426-3.049-7.355-1.4
		c-4.424-12.666-25.927-61.569-29.387-67.36c-1.658-2.78-5.246-8.448-6.538-10.859c-1.448-2.692-1.8-3.798-1.653-4.302
		c0.629-0.33,3.203,0.287,4.539,0.616c2.223,0.554,3.422,0.818,4.196,0.437c1.157-0.585,0.843-2.07,0.065-5.054
		c-0.326-1.257-0.975-3.842-0.688-4.446c0.612-0.219,2.943,0.559,4.317,1.032c2.795,0.964,4.561,1.516,5.548,0.718
		c0.541-0.425,0.723-1.121,0.723-1.988c0-0.927-0.212-2.048-0.441-3.266c-0.158-0.855-0.594-3.01-0.342-3.54
		c0.508-0.118,2.283,0.508,3.354,0.89c2.568,0.912,5.007,1.781,6.324,0.57c0.614-0.565,0.523-1.707,0.193-4.056
		c-0.17-1.146-0.699-4.386-0.061-4.967c0.828-0.229,3.424,1.538,4.936,2.526c2.716,1.77,3.969,2.528,4.888,1.889
		c0.872-0.594,0.931-2.125,0.959-4.784c0.017-1.029,0.035-2.682,0.219-3.278c0.728,0.178,2.272,1.395,3.684,2.546
		c2.45,2.005,3.896,3.122,5.085,2.654c1.209-0.476,1.543-2.313,1.967-4.636c0.236-1.304,0.438-3.09,1.055-3.648
		c0.826,0.152,1.971,1.419,3.348,2.803c2.205,2.197,3.617,3.524,4.901,3.165c1.413-0.392,1.704-2.392,2.015-4.507
		c0.132-0.937,0.383-2.66,0.719-2.988c1.105-0.153,3.119,1.782,4.594,3.206c1.91,1.831,3.288,3.161,4.588,2.685
		c1.152-0.418,1.641-2.096,2.345-4.812c0.24-0.917,0.63-2.369,0.935-2.946c0.604,0.435,1.795,1.771,2.615,2.701
		c2.443,2.759,3.883,4.293,5.188,3.818c0.966-0.347,1.559-1.582,2.444-3.561c0.381-0.844,1.346-2.864,1.826-3.127
		c0.721,0.722,1.629,4.104,2.508,7.403c0.309,1.145,0.623,2.328,0.961,3.52c0.609,2.146,11.469,37.61,14.375,41.784
		c0.408,0.581,1.083,1.053,1.865,1.603c1.584,1.111,3.202,2.249,3.202,4.35c0,0.673-0.163,1.441-0.55,2.344
		c-4.625-2.203-9.95-2.301-15.101-0.25c-5.938,2.358-10.706,7.241-12.898,13.147c-2.198-2.322-4.915-4.18-8.036-5.453
		c-5.266-2.154-11.29-2.404-16.096-0.671c-5.228,1.872-9.518,5.926-11.785,11.119c-1.107,2.556-1.67,5.232-1.67,7.911
		c0,2.58,0.522,5.161,1.569,7.606c1.507,3.536,3.56,6.45,6.084,8.661c2.163,1.896,4.683,3.286,7.493,4.128
		c6.034,1.812,11.477,0.585,12.996,0.17c5.467-1.497,10.525-5.716,13.202-11.011c0.679-1.354,1.339-3.029,1.718-4.962
		c1.633,0.077,4.178-0.816,7.88-2.177c3.599-1.312,7.667-2.812,10.732-2.994c2.975-0.183,5.493,0.97,6.917,3.17
		c1.273,1.986,1.378,4.422,0.271,6.511c-0.81,1.524-2.015,3.021-4.569,4.225c-5.763,2.712-12.646,2.249-12.565,3.355
		c0.073,1.061,8.145,0.669,13.304-1.758c2.48-1.174,4.189-2.759,5.376-5c1.03-1.929,1.218-4.157,0.612-6.19
		c0.796-0.717,1.51-1.5,2.148-2.341c1.738,5.438,4.357,11.141,6.684,16.206C126.869,111.482,129.167,116.487,128.924,118.206" fill="#F4DE12"/>
	<path d="M42.367,122.883c-3.209,0.14-4.521,3.22-4.242,3.416c0.424,0.296,1.078-0.666,2.244-1.356
		c-0.12,0.608-0.104,1.279,0.031,1.957c0.545,2.696,3.27,3.436,3.434,3.066c0.168-0.358-1.6-1.253-2.025-3.376
		c-0.104-0.524-0.209-1.499,0.355-2.245c0.081-0.011,0.162-0.016,0.254-0.021c1.039-0.036,3.361,1.649,3.67,1.398
		C46.4,125.468,45.486,122.748,42.367,122.883" fill="#010101"/>
	<path d="M60.238,87.092c-1.824,0-3.305,1.488-3.305,3.307c0,1.829,1.48,3.307,3.305,3.307
		c1.826,0,3.311-1.478,3.311-3.307C63.549,88.581,62.064,87.092,60.238,87.092" fill="#010101"/>
	<path d="M105.1,76.278c-1.706,0-3.09,1.365-3.09,3.052c0,1.683,1.384,3.051,3.09,3.051
		c1.711,0,3.087-1.368,3.087-3.051C108.187,77.643,106.811,76.278,105.1,76.278" fill="#010101"/>
	<path d="M61.105,166.98c-5.197-1.585-9.021-3.669-11.041-5.297c-0.151-0.132-0.262-0.312-0.303-0.514
		c-0.017-0.093-0.021-0.193-0.021-0.311c-1.325,0.826-2.265,2.741-3.168,4.608c-0.383,0.778-0.746,1.53-1.135,2.206
		c5.502,0.754,10.662,4.928,14.768,12.049c2.365,4.089,4.267,9.07,5.236,13.642c0.457,2.148,1.338,7.38-0.264,9.566
		c-1.271,1.704-3.371,3.644-9.37,5.143c1.667,12.672,5.762,31.938,8.925,39.384c0.344-0.029,0.668-0.02,0.961,0.029
		c1.854,0.285,3.362,1.055,4.584,2c0.883,0.682,1.866,1.799,2.686,2.918c4.611,0.871,14.023,0.443,21.371-0.098
		c-1.056-22.58-14.224-38.685-22.255-52.126C68.438,181.949,63.314,170.569,61.105,166.98" fill="#E22826"/>
	<path d="M100.488,196.761c1.649-0.406,4.199-0.598,6.84-0.496c-2.137-6.853-5.977-12.42-7.984-15.036
		c0.283,3.452,0.584,7.668,0.883,11.803C100.315,194.296,100.404,195.548,100.488,196.761" fill="#E22826"/>
	<path d="M47.053,169.812c-1.557-0.464-3.144-0.609-4.747-0.435c-3.237,0.362-6.94,3.194-10.168,7.77
		c-2.958,4.187-5.293,9.521-6.581,15.007c-1.349,5.794-1.498,11.541-0.445,16.681c2.617-2.199,7.772-4.152,12.773-5.536
		C36.03,194.832,34.365,176.85,47.053,169.812" fill="#E22826"/>
	<path d="M101.448,208.005c1.682,1.413,3.396,3.151,5.075,5.12c-1.203-6.246-1.494-12.744-1.648-15.111
		c-1.782,0.061-3.324,0.25-4.25,0.532C100.932,202.864,101.233,206.471,101.448,208.005" fill="#EFAB1F"/>
	<path d="M36.779,234.697c2.868,11.391,5.717,20.469,7.799,24.906c2.167-1.854,4.68-3.814,7.117-5.52
		c-4.672-8.908-11.035-24.022-12.942-49.215c-2.794,0.76-5.325,1.604-7.438,2.483C31.8,212.657,33.962,223.481,36.779,234.697" fill="#EFAB1F"/>
	<path d="M98.958,288.863c-2.731,0.426-5.374,0.607-7.212,0.68c-4.677,0.199-9.256-0.059-11.84-0.643
		c-0.266,0.766-0.6,1.449-1.026,1.959c-0.071,0.092-0.173,0.182-0.302,0.283c-0.02,0.367-0.036,1.092-0.049,2.07
		c-0.121,5.588-0.393,18.426-1.625,24.959c1.246,0.602,3.4,1.385,6.019,1.963c0.851-9.801,1.562-14.955,4.269-19.434
		c2.237-2.832,8.599-4.365,11.928-7c0.01-0.283,0.01-0.555,0.01-0.818C99.129,291.271,99.072,289.89,98.958,288.863" fill="#EFAB1F"/>
	<path d="M52.362,292.625c-1.802-0.176-3.747-0.461-5.747-0.816c0.014,0.293,0.025,0.613,0.025,0.961
		c0,5.609-1.539,18.225-3.252,28.977c0.996,0.826,3.08,1.629,5.686,2.193c1.805-8.266,0.691-20.66,5.014-21.982
		c2.91-1.768,8.569-1.705,12.376-3.906c0.124-1.801,0.22-3.43,0.28-4.762C62.652,293.394,57.838,293.175,52.362,292.625" fill="#EFAB1F"/>
	<path d="M73.283,327.462c-1.002,1.047-2.727,3.473-3.139,5.543c1.581,1.309,2.98,2.637,4.203,3.945
		c0.689-1.701,1.883-2.928,3.447-3.49c1.965-0.697,4.258-0.303,6.193,1.061l2.242-3.959
		C81.292,330.166,76.579,329.048,73.283,327.462" fill="#4990CD"/>
	<path d="M48.488,334.109c-4.104-0.562-8.358-1.609-10.838-3.193c-1.426,1.402-3.75,4.656-5.799,8.666
		c-1.888,3.689-2.887,6.738-3.42,9.109c1.443,1.189,4.721,2.934,9.095,4.627C37.333,344.896,41.623,338.923,48.488,334.109" fill="#4990CD"/>
	<path d="M82.191,321.777c-3.098-0.713-5.551-1.695-6.714-2.373c-0.329-0.191-0.499-0.572-0.423-0.936
		c0.02-0.078,0.029-0.154,0.049-0.227c-2.131,0.119-3.508,1.027-3.881,2.58c-0.445,1.795,0.573,3.906,2.309,4.812
		c2.133,1.102,4.896,1.953,7.876,2.516C79.275,326.695,79.791,323.695,82.191,321.777" fill="#D9E8E7"/>
	<path d="M47.602,325.453c-2.898-0.744-5.102-1.805-5.871-2.928c-0.049-0.074-0.088-0.15-0.112-0.232
		c-2.196-0.039-3.733,0.836-4.359,2.482c-0.585,1.533-0.188,3.514,0.865,4.332c1.866,1.451,6.065,2.691,11.139,3.34
		C45.603,330.826,45.915,327.21,47.602,325.453" fill="#D9E8E7"/>
	<path d="M81.372,334.824c-1.052-0.324-2.146-0.338-3.093,0.002c-1.374,0.494-2.345,1.652-2.83,3.354
		c1.57,1.82,2.825,3.59,3.838,5.262c1.271,0.1,2.404-0.117,3.314-0.613C80.43,341.835,78.471,339.033,81.372,334.824" fill="#D9E8E7"/>
	<path d="M82.824,351.537c0.42,1.52,0.674,2.947,0.809,4.25c4.742,1.127,9.163,1.623,13.148,1.711
		c-1.661-1.273-3.905-3.457-4.983-4.541C88.354,352.601,85.244,352.076,82.824,351.537" fill="#D9E8E7"/>
	<path d="M38.537,355.248c-4.73-1.721-8.417-3.576-10.406-4.973c-0.217,1.373-0.258,2.436-0.248,3.168
		c1.977,2.119,5.375,4.188,9.872,5.988c0.423,0.166,0.849,0.334,1.278,0.49C38.472,358.466,38.413,356.699,38.537,355.248" fill="#D9E8E7"/>
	<path d="M72.709,160.125c-0.514-1.442-6.236-0.349-10.65-1.226c-4.404-0.876-11.824-4.204-14.528-8.893
		c-3.728-6.408,0.445-11.393,3.306-14.77c2.857-3.38,4.955-1.565,4.309-3.519c-0.574-1.707-4.824-2.046-7.254-9.335
		c-2.146-6.407-10.718-32.869-19.561-49.09c-8.842-16.221-17.489-32.77-17.489-32.77s-0.467-1.327,2.127-1.934
		c2.595-0.6,1.228-4.979,0.239-6.58c-0.99-1.609,0.897-2.363,5.057-1.017c4.152,1.356,4.441-3.395,4.227-5.749
		c-0.221-2.354,0.973-1.953,5.285,0.021c4.303,1.977,4.368-3.808,3.576-7.73c-0.797-3.932,1.14-1.532,4.363,0.045
		c3.227,1.593,3.768-1.136,3.768-1.136c-0.005-0.023-0.012-0.043-0.021-0.062c-0.045,0.039-0.086,0.072-0.148,0.104
		c-0.915,0.643-2.17-0.119-4.883-1.889c-1.51-0.985-4.105-2.755-4.934-2.523c-0.637,0.578-0.109,3.821,0.059,4.964
		c0.333,2.352,0.418,3.493-0.189,4.059c-1.318,1.211-3.756,0.342-6.326-0.57c-1.07-0.382-2.846-1.008-3.353-0.893
		c-0.252,0.533,0.18,2.688,0.341,3.543c0.23,1.218,0.441,2.339,0.441,3.266c0,0.867-0.185,1.561-0.722,1.988
		c-0.991,0.795-2.753,0.246-5.548-0.718c-1.373-0.474-3.706-1.256-4.321-1.032c-0.289,0.603,0.364,3.188,0.692,4.446
		c0.776,2.979,1.09,4.469-0.067,5.054c-0.776,0.382-1.972,0.117-4.194-0.437c-1.337-0.329-3.912-0.946-4.54-0.621
		c-0.147,0.506,0.206,1.614,1.649,4.307c1.297,2.411,4.883,8.079,6.543,10.859c3.459,5.791,24.963,54.694,29.385,67.36
		c3.932-1.65,7.635,0.775,7.355,1.4c-0.305,0.683-4.582-1.384-7.771,0.821c-1.987,1.381-2.914,4.118-2.672,7.903
		c0.104,1.722,1.424,3.827,3.25,5.237c1.892,1.461,4.082,2.049,6.185,1.672c1.731-2.359,4.35-4.176,4.732-3.529
		c0.411,0.674-2.544,2.46-4.321,6.306c-1.186,2.557-1.888,5.713-1.431,8.845c0.322,2.125,1.239,4.622,3.509,6.826
		c3.529,3.421,9.543,4.925,9.38,5.541c-0.112,0.475-2.415,0.277-5.121-0.816c-0.403,1.017-0.796,2.153-0.919,2.726
		c2.048,1.543,5.576,3.313,9.998,4.68c0.963-2.024,3.609-2.512,3.609-2.512C70.305,162.66,72.945,160.802,72.709,160.125
		 M46.089,125.721c-0.312,0.253-2.631-1.433-3.67-1.398c-0.091,0.01-0.174,0.015-0.254,0.022c-0.567,0.748-0.46,1.721-0.354,2.241
		c0.425,2.124,2.189,3.021,2.021,3.385c-0.162,0.362-2.887-0.378-3.43-3.071c-0.139-0.68-0.154-1.351-0.034-1.957
		c-1.169,0.69-1.821,1.647-2.244,1.356c-0.276-0.194,1.036-3.281,4.243-3.419C45.486,122.748,46.401,125.473,46.089,125.721" fill="#EFAB1F"/>
	<path d="M128.924,118.206c0.243-1.719-2.055-6.724-4.492-12.019c-2.326-5.065-4.945-10.768-6.684-16.206
		c-0.639,0.841-1.353,1.624-2.148,2.341c0.196,0.649,0.307,1.312,0.334,1.981c1.095,2.358,3.185,6.842,5.488,11.726
		c3.381,7.164,5.352,10.544,5.01,12.464c-0.234,1.36-1.071,3.426-2.237,4.738C127.502,120.822,128.811,119.018,128.924,118.206" fill="#F5F084"/>
	<path d="M106.657,101.212c-6.023,2.096-10.982,2.396-10.349,4.058c-0.084-1.106,6.803-0.644,12.562-3.355
		c2.557-1.208,3.761-2.7,4.57-4.225c0.438-0.815,0.682-1.692,0.748-2.57C113.35,96.583,111.143,99.656,106.657,101.212" fill="#EFAB1F"/>
	<path d="M49.369,15.847c2.779,0.844,3.454-3.78,3.828-5.781c0.366-2.003,2.027,1.284,5.566,2.791
		c3.533,1.501,5.48,0.035,5.664-2.285c0.19-2.313-0.537-4.617,1.342-2.739c1.881,1.879,4.765,5.17,6.838,4.635
		C74.684,11.92,75.393,7,76.652,6.485c1.266-0.502,3.18,2.198,4.575,3.729c1.401,1.537,3.499,2.016,4.663,0.176
		c0.943-0.324,1.455,3.366,4.033,12.926c2.574,9.56,9.748,27.424,12.451,31.709c3.227,3.28,3.535,5.339,3.391,6.329
		c1.514,0.282,2.994,0.753,4.4,1.423c0.387-0.891,0.55-1.666,0.55-2.342c0-2.101-1.618-3.238-3.202-4.345
		c-0.782-0.55-1.459-1.021-1.865-1.603c-2.906-4.176-13.766-39.638-14.379-41.786c-0.334-1.189-0.648-2.373-0.957-3.522
		c-0.879-3.292-1.787-6.677-2.508-7.398c-0.48,0.258-1.445,2.285-1.826,3.127c-0.886,1.979-1.479,3.209-2.444,3.561
		c-1.306,0.475-2.745-1.062-5.188-3.818c-0.82-0.926-2.012-2.271-2.616-2.704c-0.306,0.575-0.693,2.032-0.934,2.949
		c-0.704,2.711-1.192,4.393-2.345,4.812c-1.3,0.472-2.678-0.854-4.588-2.687c-1.475-1.424-3.488-3.36-4.594-3.2
		c-0.336,0.324-0.587,2.048-0.719,2.979c-0.311,2.12-0.602,4.118-2.015,4.51c-1.284,0.366-2.696-0.966-4.901-3.163
		c-1.377-1.389-2.521-2.65-3.348-2.803c-0.617,0.559-0.818,2.34-1.055,3.646c-0.424,2.325-0.758,4.165-1.967,4.639
		c-0.928,0.358-2.006-0.233-3.596-1.461C46.027,13.011,47.148,15.179,49.369,15.847" fill="#F5F084"/>
	<path d="M103.859,90.273c3-1.089,7.197-0.258,9.786,1.781c-0.132-0.301-0.299-0.593-0.474-0.875
		c-1.424-2.2-3.942-3.355-6.92-3.175c-3.062,0.187-7.131,1.687-10.729,2.997c-3.7,1.358-6.245,2.251-7.878,2.174
		c-0.07,0.371-0.156,0.734-0.248,1.08C90.64,94.748,100.673,91.429,103.859,90.273" fill="#F5F084"/>
	<path d="M97.296,152.708c-1.267,2.925-8.776,8.265-5.633,11.855c-1.173-4.901,5.46-8.094,6.486-10.323
		c1.237-2.64-0.347-5.596-2.204-5.295c-0.074,0.17-0.141,0.337-0.209,0.486c0.572-0.124,0.932-0.136,1.004,0.024
		C97.055,149.863,97.891,151.343,97.296,152.708" fill="#F5F084"/>
	<path d="M92.93,65.164c-4.525,2.592-8.041,6.817-9.651,11.732c-0.006,0.013-0.011,0.021-0.015,0.031
		c0.244,0.31,0.486,0.625,0.716,0.946C85.297,73.442,88.882,68.375,92.93,65.164" fill="#B5D9D9"/>
	<path d="M87.906,91.437c1.391-0.022,4.357-1.106,7.012-2.081c-2.98,0.785-5.572,1.008-6.937,0.764
		C87.968,90.567,87.945,91.008,87.906,91.437" fill="#B5D9D9"/>
	<path d="M62.008,106.364c-5.754-1.729-10.012-5.756-12.666-11.976c-1.963-4.611-1.934-9.717,0.1-14.371
		c1.337-3.075,3.443-5.721,6.044-7.684c-3.46,2.018-6.254,5.146-7.901,8.92c-2.039,4.665-2.074,9.763-0.107,14.372
		c2.662,6.217,6.918,10.252,12.67,11.976c5.664,1.7,10.77,0.55,12.195,0.159c2.197-0.604,4.334-1.688,6.246-3.12
		c-1.396,0.826-2.878,1.469-4.391,1.882C72.773,106.916,67.662,108.054,62.008,106.364" fill="#B5D9D9"/>
	<path d="M55.194,202.286c3.033-0.096,5.676,0.1,7.71,0.583c-1.181,1.177-3.195,2.396-7.307,3.447
		C55.424,204.85,55.289,203.499,55.194,202.286" fill="#E22826"/>
	<path d="M25.844,210.556c0.776-0.8,2.083-1.624,3.781-2.445c0.109,1.027,0.271,2.226,0.475,3.557
		C28.638,211.684,26.762,211.4,25.844,210.556" fill="#E22826"/>
	<path d="M22.754,229.478c2.359-3.333,5.34-6.521,8.869-9.494c0.934,4.609,2.117,9.839,3.459,15.144
		c1.701,6.775,3.41,12.761,4.969,17.472c-5.342-0.654-18.897-2.488-22.688-3.273C16.623,245.216,16.764,237.944,22.754,229.478" fill="#E22826"/>
	<path d="M112.81,200.017c-0.12-0.489-0.229-0.94-0.341-1.347c0.488,0.121,0.947,0.258,1.367,0.406
		C113.586,199.407,113.223,199.74,112.81,200.017" fill="#E22826"/>
	<path d="M110.539,198.305c-0.518-0.073-1.052-0.136-1.584-0.181c1.105,4.973,2.771,13.912,2.963,22.314
		c0.613,0.96,1.223,1.949,1.809,2.956C113.561,212.919,111.686,201.981,110.539,198.305" fill="#F5F084"/>
	<path d="M98.436,173.279c0.064,0.344,0.131,0.701,0.19,1.064c3.973,3.815,11.274,12.104,13.335,22.438
		c0.793,0.153,1.553,0.343,2.236,0.572C113.912,191.919,107.229,178.144,98.436,173.279" fill="#F79D88"/>
	<path d="M116.012,231.818c-3.89-9.015-10.088-17.863-15.943-22.68c-0.158-0.134-0.268-0.32-0.303-0.525
		c-0.322-1.896-0.795-8.483-1.297-15.457c-0.531-7.473-1.084-15.202-1.514-18.116c-0.77-5.228-2.326-7.916-3.628-9.295
		c-0.476,0.214-0.944,0.419-1.416,0.615c1.274,1.418,2.755,4.097,3.495,9.148c0.432,2.908,0.981,10.634,1.52,18.115
		c0.496,6.972,0.965,13.556,1.285,15.447c0.031,0.209,0.151,0.396,0.312,0.532c5.849,4.82,12.056,13.663,15.931,22.678
		c3.641,8.438,4.073,14.193,3.873,17.367c0.643-0.107,1.158-0.205,1.538-0.287C120.094,246.228,119.708,240.413,116.012,231.818" fill="#F79D88"/>
	<path d="M53.441,202.373c-0.412,0.027-0.826,0.057-1.247,0.095c-0.103,10.017,2.526,27.789,9.161,45.925
		c0.566-0.234,1.107-0.43,1.615-0.582C59.234,238.646,54.3,213.936,53.441,202.373" fill="#F5F084"/>
	<path d="M36.908,281.855c1.429-3.281,2.271-3.557,2.822-5.99c0.477-2.066-0.834-9.195-1.091-9.51
		c-0.56-0.496,1.483-2.795,4.569-5.553c-0.755-1.551-1.615-3.707-2.539-6.371c-4.035-0.467-15.479-1.986-21.295-2.959
		c0.379,4.895,4.062,10.863,6.789,15.283c2.014,3.258,3.469,5.615,3.504,7.115c0.02,1.227-0.217,2.91-0.467,4.697
		c-0.453,3.281-0.9,5.32-0.247,6.355c1.269,0.832,5.111,2.158,9.788,3.369C36.825,286.205,36.908,281.855,36.908,281.855" fill="#4990CD"/>
	<path d="M95.651,282.873c1.419-2.508,3.354-3.941,4.327-5.678c2.771-5,3.637-8.16,1.758-7.578
		c-1.228,0.377-2.406,1.541-5.618,3.309c-8.212,4.502-14.718,8.375-15.812,9.023c1.43-0.367,3.803-1.227,6.619-2.555
		c8.012-3.781,15.414-9.668,15.609-9.453c1.01,1.078-10.927,10.697-21.501,13.633c-0.042,0.248-0.086,0.525-0.138,0.83
		c-0.129,0.855-0.289,1.842-0.508,2.807c2.893,0.635,8.684,0.857,14.295,0.377C94.59,286.638,94.578,284.777,95.651,282.873" fill="#4990CD"/>
	<path d="M106.609,276.349c0.035-0.221,0.151-0.412,0.322-0.555c2.012-1.547,5.377-5.467,8.018-10.398
		c2.355-4.428,4.025-9.713,3.547-13.998c-0.016,0.006-0.029,0.006-0.05,0.006c-2.767,5.84-6.033,8.162-7.239,8.619
		c2.336,0.482,5.303-3.836,5.775-2.73c0.797,1.895-6.874,14.615-10.771,18.32c-0.281,1.232-0.996,6.896-1.688,10.086
		c0.302-0.111,0.598-0.227,0.873-0.34C106.09,282.761,106.211,278.695,106.609,276.349" fill="#8CD4DE"/>
	<path d="M74.094,256.017c-0.988-0.516-2.611-3.295-4.744-5.014c-1.068-0.85-2.355-1.541-3.926-1.783
		c-1.907-0.299-6.61,2.018-12.585,6.203c2.745-1.426,8.708-5.232,11.975-5.266C68.084,250.128,71.592,254.806,74.094,256.017" fill="#8CD4DE"/>
	<path d="M99.523,136.124c-2.674,0.742-5.41,1.392-8.201,1.95c-0.08,0.325-0.176,0.778-0.309,1.325
		c2.813-0.494,5.471-1.026,7.84-1.578C99.115,137.167,99.34,136.588,99.523,136.124" fill="#B5D9D9"/>
	<path d="M60.263,140.174c-3.371-0.435-7.547-0.98-9.438,0.568c-0.396,0.32-0.674,0.783-0.85,1.33
		c2.695-2.269,5.777-0.719,11.953-0.452c0.015-0.429,0.026-0.839,0.035-1.23C61.424,140.325,60.846,140.251,60.263,140.174" fill="#B5D9D9"/>
	<path d="M63.963,140.54c-0.176-0.005-0.359-0.009-0.557-0.019c-0.003,0.312-0.021,0.701-0.037,1.15
		c3.51,0.122,7.642,0.122,12.375-0.274c0.051-0.465,0.098-0.876,0.117-1.213C71.934,140.48,67.955,140.595,63.963,140.54" fill="#B5D9D9"/>
	<path d="M77.328,140.065c-0.029,0.33-0.068,0.734-0.117,1.198c4.171-0.396,8.354-0.957,12.263-1.604
		c0.117-0.479,0.218-0.916,0.3-1.281C85.693,139.143,81.541,139.708,77.328,140.065" fill="#B5D9D9"/>
</g>
</svg>
